<svg width="729" height="744" viewBox="0 0 729 744" fill="none" xmlns="http://www.w3.org/2000/svg">
<path opacity="0.5" d="M247.557 317.779L724.239 187.435" stroke="#CDDED9" stroke-width="0.1545" stroke-miterlimit="10" stroke-linecap="round"/>
<path d="M628.44 66.5281L728.691 245.306" stroke="#CDDED9" stroke-width="0.2575" stroke-miterlimit="10" stroke-linecap="round"/>
<path d="M728.69 449.192L426.156 733.741" stroke="#CDDED9" stroke-width="0.2575" stroke-miterlimit="10" stroke-linecap="round"/>
<path d="M728.69 437.795L426.156 681.033" stroke="#CDDED9" stroke-width="0.2575" stroke-miterlimit="10" stroke-linecap="round"/>
<path d="M0.935547 292.137L229.572 206.666" stroke="#CDDED9" stroke-width="0.2575" stroke-miterlimit="10" stroke-linecap="round"/>
<path d="M628.439 324.723L204.108 206.666" stroke="#CDDED9" stroke-width="0.2575" stroke-miterlimit="10" stroke-linecap="round"/>
<path d="M0.935547 454.889L245.598 530.745" stroke="#CDDED9" stroke-width="0.2575" stroke-miterlimit="10" stroke-linecap="round"/>
<path d="M464.263 681.033L0.935547 476.614" stroke="#CDDED9" stroke-width="0.2575" stroke-miterlimit="10" stroke-linecap="round"/>
<path d="M464.263 733.741L0.935547 498.338" stroke="#CDDED9" stroke-width="0.2575" stroke-miterlimit="10" stroke-linecap="round"/>
<path d="M446.812 294.809L728.69 353.036" stroke="#CDDED9" stroke-width="0.2575" stroke-miterlimit="10" stroke-linecap="round"/>
<path d="M477.083 296.945L0.935547 360.871" stroke="#CDDED9" stroke-width="0.2575" stroke-miterlimit="10" stroke-linecap="round"/>
<path d="M0.935547 450.438L490.438 583.987" stroke="#CDDED9" stroke-width="0.2575" stroke-miterlimit="10" stroke-linecap="round"/>
<path d="M453.4 583.987L728.69 422.125" stroke="#CDDED9" stroke-width="0.2575" stroke-miterlimit="10" stroke-linecap="round"/>
<path d="M674.914 82.02L0.935547 323.833" stroke="#CDDED9" stroke-width="0.2575" stroke-miterlimit="10" stroke-linecap="round"/>
<path d="M245.598 376.007L0.935547 380.814" stroke="#CDDED9" stroke-width="0.2575" stroke-miterlimit="10" stroke-linecap="round"/>
<path d="M204.108 376.007L728.69 385.088" stroke="#CDDED9" stroke-width="0.2575" stroke-miterlimit="10" stroke-linecap="round"/>
<path d="M216.396 530.746L728.691 401.114" stroke="#CDDED9" stroke-width="0.2575" stroke-miterlimit="10" stroke-linecap="round"/>
<g opacity="0.5">
<path opacity="0.5" d="M628.44 61.0081L728.691 239.608" stroke="#CDDED9" stroke-width="0.1545" stroke-miterlimit="10" stroke-linecap="round"/>
<path opacity="0.5" d="M728.69 443.671L426.156 728.22" stroke="#CDDED9" stroke-width="0.1545" stroke-miterlimit="10" stroke-linecap="round"/>
<path opacity="0.5" d="M728.69 432.275L426.156 675.513" stroke="#CDDED9" stroke-width="0.1545" stroke-miterlimit="10" stroke-linecap="round"/>
<path opacity="0.5" d="M0.935547 286.439L229.572 201.146" stroke="#CDDED9" stroke-width="0.1545" stroke-miterlimit="10" stroke-linecap="round"/>
<path opacity="0.5" d="M628.439 319.203L204.108 201.146" stroke="#CDDED9" stroke-width="0.1545" stroke-miterlimit="10" stroke-linecap="round"/>
<path opacity="0.5" d="M0.935547 449.369L245.598 525.225" stroke="#CDDED9" stroke-width="0.1545" stroke-miterlimit="10" stroke-linecap="round"/>
<path opacity="0.5" d="M464.263 675.513L0.935547 470.915" stroke="#CDDED9" stroke-width="0.1545" stroke-miterlimit="10" stroke-linecap="round"/>
<path opacity="0.5" d="M464.263 728.221L0.935547 492.64" stroke="#CDDED9" stroke-width="0.1545" stroke-miterlimit="10" stroke-linecap="round"/>
<path opacity="0.5" d="M446.812 289.288L728.69 347.338" stroke="#CDDED9" stroke-width="0.1545" stroke-miterlimit="10" stroke-linecap="round"/>
<path opacity="0.5" d="M477.083 291.247L0.935547 355.351" stroke="#CDDED9" stroke-width="0.1545" stroke-miterlimit="10" stroke-linecap="round"/>
<path opacity="0.5" d="M0.935547 444.918L490.438 578.467" stroke="#CDDED9" stroke-width="0.1545" stroke-miterlimit="10" stroke-linecap="round"/>
<path opacity="0.5" d="M453.4 578.467L728.69 416.605" stroke="#CDDED9" stroke-width="0.1545" stroke-miterlimit="10" stroke-linecap="round"/>
<path opacity="0.5" d="M674.914 76.4998L0.935547 318.313" stroke="#CDDED9" stroke-width="0.1545" stroke-miterlimit="10" stroke-linecap="round"/>
<path opacity="0.5" d="M245.598 370.308L0.935547 375.294" stroke="#CDDED9" stroke-width="0.1545" stroke-miterlimit="10" stroke-linecap="round"/>
<path opacity="0.5" d="M204.108 370.308L728.69 379.568" stroke="#CDDED9" stroke-width="0.1545" stroke-miterlimit="10" stroke-linecap="round"/>
<path opacity="0.5" d="M216.396 525.226L728.691 395.594" stroke="#CDDED9" stroke-width="0.1545" stroke-miterlimit="10" stroke-linecap="round"/>
</g>
<g opacity="0.5">
<path opacity="0.5" d="M628.439 70.8016L728.69 249.58" stroke="#CDDED9" stroke-width="0.1545" stroke-miterlimit="10" stroke-linecap="round"/>
<path opacity="0.5" d="M728.69 453.465L426.156 738.014" stroke="#CDDED9" stroke-width="0.1545" stroke-miterlimit="10" stroke-linecap="round"/>
<path opacity="0.5" d="M728.69 442.069L426.156 685.307" stroke="#CDDED9" stroke-width="0.1545" stroke-miterlimit="10" stroke-linecap="round"/>
<path opacity="0.5" d="M0.935547 296.411L229.572 210.939" stroke="#CDDED9" stroke-width="0.1545" stroke-miterlimit="10" stroke-linecap="round"/>
<path opacity="0.5" d="M628.439 328.997L204.108 210.939" stroke="#CDDED9" stroke-width="0.1545" stroke-miterlimit="10" stroke-linecap="round"/>
<path opacity="0.5" d="M0.935547 459.163L245.598 535.019" stroke="#CDDED9" stroke-width="0.1545" stroke-miterlimit="10" stroke-linecap="round"/>
<path opacity="0.5" d="M464.263 685.306L0.935547 480.887" stroke="#CDDED9" stroke-width="0.1545" stroke-miterlimit="10" stroke-linecap="round"/>
<path opacity="0.5" d="M464.263 738.014L0.935547 502.611" stroke="#CDDED9" stroke-width="0.1545" stroke-miterlimit="10" stroke-linecap="round"/>
<path opacity="0.5" d="M446.812 299.082L728.69 357.309" stroke="#CDDED9" stroke-width="0.1545" stroke-miterlimit="10" stroke-linecap="round"/>
<path opacity="0.5" d="M477.083 301.219L0.935547 365.144" stroke="#CDDED9" stroke-width="0.1545" stroke-miterlimit="10" stroke-linecap="round"/>
<path opacity="0.5" d="M0.935547 454.711L490.438 588.26" stroke="#CDDED9" stroke-width="0.1545" stroke-miterlimit="10" stroke-linecap="round"/>
<path opacity="0.5" d="M453.4 588.261L728.69 426.399" stroke="#CDDED9" stroke-width="0.1545" stroke-miterlimit="10" stroke-linecap="round"/>
<path opacity="0.5" d="M674.914 86.2931L0.935547 328.284" stroke="#CDDED9" stroke-width="0.1545" stroke-miterlimit="10" stroke-linecap="round"/>
<path opacity="0.5" d="M245.598 380.28L0.935547 385.088" stroke="#CDDED9" stroke-width="0.1545" stroke-miterlimit="10" stroke-linecap="round"/>
<path opacity="0.5" d="M204.108 380.28L728.69 389.362" stroke="#CDDED9" stroke-width="0.1545" stroke-miterlimit="10" stroke-linecap="round"/>
<path opacity="0.5" d="M216.396 535.019L728.691 405.387" stroke="#CDDED9" stroke-width="0.1545" stroke-miterlimit="10" stroke-linecap="round"/>
</g>
<path d="M8.94873 289.645V502.434L15.7152 505.817V286.974L8.94873 289.645Z" stroke="#CDDED9" stroke-width="0.2575" stroke-miterlimit="10" stroke-linecap="round"/>
<path d="M15.7153 286.974L23.016 288.576V503.501L15.7153 505.816" stroke="#CDDED9" stroke-width="0.2575" stroke-miterlimit="10" stroke-linecap="round"/>
<path d="M232.599 526.65V214.679L247.556 218.774V522.911L232.599 526.65Z" stroke="#CDDED9" stroke-width="0.2575" stroke-miterlimit="10" stroke-linecap="round"/>
<path d="M232.599 214.679L218.176 219.131V522.199L232.599 526.65V214.679Z" stroke="#CDDED9" stroke-width="0.2575" stroke-miterlimit="10" stroke-linecap="round"/>
<path d="M303.113 321.34V532.882L314.153 535.909V319.916L303.113 321.34Z" stroke="#CDDED9" stroke-width="0.2575" stroke-miterlimit="10" stroke-linecap="round"/>
<path d="M314.153 319.916L325.193 321.696V531.814L314.153 535.909" stroke="#CDDED9" stroke-width="0.2575" stroke-miterlimit="10" stroke-linecap="round"/>
<path d="M465.153 577.042V298.548L449.662 300.506V572.947L465.153 577.042Z" stroke="#CDDED9" stroke-width="0.2575" stroke-miterlimit="10" stroke-linecap="round"/>
<path d="M465.153 298.548L479.221 301.575V568.851L465.153 577.042V298.548Z" stroke="#CDDED9" stroke-width="0.2575" stroke-miterlimit="10" stroke-linecap="round"/>
<path d="M643.575 93.4164V529.321L651.944 521.486V108.374L643.575 93.4164Z" stroke="#CDDED9" stroke-width="0.515" stroke-miterlimit="10" stroke-linecap="round"/>
<path d="M643.575 93.4164L630.398 98.0461V527.541L643.575 529.321V93.4164Z" stroke="#CDDED9" stroke-width="0.515" stroke-miterlimit="10" stroke-linecap="round"/>
<path d="M715.87 222.336V461.3L710.884 465.93V213.432L715.87 222.336Z" stroke="#CDDED9" stroke-width="0.2575" stroke-miterlimit="10" stroke-linecap="round"/>
<path d="M710.884 213.432L702.871 216.103V465.93H710.884" stroke="#CDDED9" stroke-width="0.2575" stroke-miterlimit="10" stroke-linecap="round"/>
<path d="M403.186 179.6V496.201L414.582 498.338V175.505L403.186 179.6Z" stroke="#CDDED9" stroke-width="0.2575" stroke-miterlimit="10" stroke-linecap="round"/>
<path d="M414.582 175.504L426.156 181.737V492.818L414.582 498.338V175.504Z" stroke="#CDDED9" stroke-width="0.2575" stroke-miterlimit="10" stroke-linecap="round"/>
<path d="M654.615 530.745L0.935547 440.822" stroke="#CDDED9" stroke-width="0.2575" stroke-miterlimit="10" stroke-linecap="round"/>
<path d="M702.87 512.227L594.606 501.009V325.258" stroke="#CDDED9" stroke-width="0.515" stroke-miterlimit="10" stroke-linecap="round"/>
<path d="M581.074 141.85L459.811 182.093" stroke="#CDDED9" stroke-width="0.515" stroke-miterlimit="10" stroke-linecap="round"/>
<path d="M467.468 173.902V298.548" stroke="#CDDED9" stroke-width="0.515" stroke-miterlimit="10" stroke-linecap="round"/>
<path d="M467.468 179.6L492.219 190.462L575.198 164.643" stroke="#CDDED9" stroke-width="0.515" stroke-miterlimit="10" stroke-linecap="round"/>
<path d="M492.219 190.462V302.822" stroke="#CDDED9" stroke-width="0.515" stroke-miterlimit="10" stroke-linecap="round"/>
<path d="M500.944 306.027V196.516L575.198 173.902" stroke="#CDDED9" stroke-width="0.515" stroke-miterlimit="10" stroke-linecap="round"/>
<path d="M500.944 196.516L507.177 200.256L575.198 179.6" stroke="#CDDED9" stroke-width="0.515" stroke-miterlimit="10" stroke-linecap="round"/>
<path d="M507.177 200.256V307.273" stroke="#CDDED9" stroke-width="0.515" stroke-miterlimit="10" stroke-linecap="round"/>
<path d="M546.352 182.805V315.286" stroke="#CDDED9" stroke-width="0.515" stroke-miterlimit="10" stroke-linecap="round"/>
<path d="M551.871 316.533V181.025L556.501 185.298V317.423" stroke="#CDDED9" stroke-width="0.515" stroke-miterlimit="10" stroke-linecap="round" stroke-linejoin="round"/>
<path d="M663.34 183.339V298.548L695.392 314.93V225.541L663.34 183.339Z" stroke="#CDDED9" stroke-width="0.515" stroke-miterlimit="10" stroke-linecap="round"/>
<path d="M695.392 225.541H686.311L663.34 201.502" stroke="#CDDED9" stroke-width="0.515" stroke-miterlimit="10" stroke-linecap="round"/>
<path d="M686.311 225.541V309.944" stroke="#CDDED9" stroke-width="0.515" stroke-miterlimit="10" stroke-linecap="round"/>
<path d="M683.284 308.697V227.678L663.34 206.666" stroke="#CDDED9" stroke-width="0.515" stroke-miterlimit="10" stroke-linecap="round"/>
<path d="M683.284 227.678H680.791L663.34 210.94" stroke="#CDDED9" stroke-width="0.515" stroke-miterlimit="10" stroke-linecap="round"/>
<path d="M680.791 227.678V307.451" stroke="#CDDED9" stroke-width="0.515" stroke-miterlimit="10" stroke-linecap="round"/>
<path d="M435.238 569.564V336.832L333.74 347.516V541.252L359.738 530.746V344.845" stroke="#CDDED9" stroke-width="0.515" stroke-miterlimit="10" stroke-linecap="round"/>
<path d="M359.738 530.746L435.238 550.333" stroke="#CDDED9" stroke-width="0.515" stroke-miterlimit="10" stroke-linecap="round"/>
<path d="M393.748 363.364L368.285 365.323V412.688H393.748V363.364Z" stroke="#CDDED9" stroke-width="0.515" stroke-miterlimit="10" stroke-linecap="round"/>
<path d="M399.268 363.364V412.688H430.608V360.871L399.268 363.364Z" stroke="#CDDED9" stroke-width="0.515" stroke-miterlimit="10" stroke-linecap="round"/>
<path d="M368.285 418.742H393.748V464.149L368.285 462.547V418.742Z" stroke="#CDDED9" stroke-width="0.515" stroke-miterlimit="10" stroke-linecap="round"/>
<path d="M399.268 418.742V464.149L430.608 465.93V419.455L399.268 418.742Z" stroke="#CDDED9" stroke-width="0.515" stroke-miterlimit="10" stroke-linecap="round"/>
<path d="M495.068 336.832V380.992L583.567 382.595V348.05L495.068 336.832Z" stroke="#CDDED9" stroke-width="0.515" stroke-miterlimit="10" stroke-linecap="round"/>
<path d="M573.595 382.417V346.804" stroke="#CDDED9" stroke-width="0.515" stroke-miterlimit="10" stroke-linecap="round"/>
<path d="M536.201 341.996V381.705" stroke="#CDDED9" stroke-width="0.515" stroke-miterlimit="10" stroke-linecap="round"/>
<path d="M543.502 342.886V381.705" stroke="#CDDED9" stroke-width="0.515" stroke-miterlimit="10" stroke-linecap="round"/>
<path d="M531.038 341.996V381.705" stroke="#CDDED9" stroke-width="0.515" stroke-miterlimit="10" stroke-linecap="round"/>
<path d="M663.34 357.844V384.02L695.392 384.554V362.296L663.34 357.844Z" stroke="#CDDED9" stroke-width="0.515" stroke-miterlimit="10" stroke-linecap="round"/>
<path d="M690.584 361.583V384.376" stroke="#CDDED9" stroke-width="0.515" stroke-miterlimit="10" stroke-linecap="round"/>
<path d="M679.366 360.158V384.197" stroke="#CDDED9" stroke-width="0.515" stroke-miterlimit="10" stroke-linecap="round"/>
<path d="M674.915 359.802V384.197" stroke="#CDDED9" stroke-width="0.515" stroke-miterlimit="10" stroke-linecap="round"/>
<path d="M672.244 359.09V384.197" stroke="#CDDED9" stroke-width="0.515" stroke-miterlimit="10" stroke-linecap="round"/>
<path d="M8.94873 284.48V480.175L439.69 670.171L643.575 505.994L594.607 501.008L465.153 577.043V298.548L257.35 326.326V520.418" stroke="#CDDED9" stroke-width="1.03" stroke-miterlimit="10" stroke-linecap="round"/>
<path d="M643.575 82.02V335.408" stroke="#CDDED9" stroke-width="1.03" stroke-miterlimit="10" stroke-linecap="round"/>
<path d="M218.71 210.761V376.541H232.6V526.65L257.351 520.418L333.741 541.251" stroke="#CDDED9" stroke-width="1.03" stroke-miterlimit="10" stroke-linecap="round"/>
<path d="M76.4349 478.394L23.0151 485.873V380.814L75.3665 379.39L76.4349 478.394ZM76.4349 478.394L232.599 526.65" stroke="#CDDED9" stroke-width="1.03" stroke-miterlimit="10" stroke-linecap="round"/>
<path d="M8.94873 480.175V502.433L439.512 721.098V670.171" stroke="#CDDED9" stroke-width="1.03" stroke-miterlimit="10" stroke-linecap="round"/>
<path d="M183.63 705.428C209.003 705.428 229.571 697.536 229.571 687.8C229.571 678.064 209.003 670.171 183.63 670.171C158.258 670.171 137.689 678.064 137.689 687.8C137.689 697.536 158.258 705.428 183.63 705.428Z" stroke="#CDDED9" stroke-width="0.515" stroke-miterlimit="10" stroke-linecap="round"/>
<path d="M150.867 633.846C150.867 638.653 140.539 642.571 127.896 642.571C115.254 642.571 104.926 638.653 104.926 633.846C104.926 629.038 115.254 625.12 127.896 625.12C140.539 625.12 150.867 629.038 150.867 633.846Z" stroke="#CDDED9" stroke-width="0.515" stroke-miterlimit="10" stroke-linecap="round"/>
<path d="M663.34 600.191C676.026 600.191 686.311 596.284 686.311 591.466C686.311 586.647 676.026 582.74 663.34 582.74C650.654 582.74 640.37 586.647 640.37 591.466C640.37 596.284 650.654 600.191 663.34 600.191Z" stroke="#CDDED9" stroke-width="0.515" stroke-miterlimit="10" stroke-linecap="round"/>
<path d="M644.822 633.846C644.822 638.653 634.494 642.571 621.851 642.571C609.209 642.571 598.881 638.653 598.881 633.846C598.881 629.038 609.209 625.12 621.851 625.12C634.494 625.12 644.822 629.038 644.822 633.846Z" stroke="#CDDED9" stroke-width="0.515" stroke-miterlimit="10" stroke-linecap="round"/>
<path d="M573.594 696.525C586.28 696.525 596.564 692.619 596.564 687.8C596.564 682.981 586.28 679.074 573.594 679.074C560.908 679.074 550.624 682.981 550.624 687.8C550.624 692.619 560.908 696.525 573.594 696.525Z" stroke="#CDDED9" stroke-width="0.515" stroke-miterlimit="10" stroke-linecap="round"/>
<path d="M439.512 721.098L715.87 461.3V222.336L643.575 93.4164L403.186 179.6V262.045L218.71 210.762L8.94873 289.645" stroke="#CDDED9" stroke-width="1.03" stroke-miterlimit="10" stroke-linecap="round"/>
<path d="M403.186 262.045V306.917" stroke="#CDDED9" stroke-width="1.03" stroke-miterlimit="10" stroke-linecap="round"/>
<path d="M643.575 505.995V335.408" stroke="#CDDED9" stroke-width="1.03" stroke-miterlimit="10" stroke-linecap="round"/>
<path d="M465.153 298.548L593.895 325.257L594.607 501.008" stroke="#CDDED9" stroke-width="1.03" stroke-miterlimit="10" stroke-linecap="round"/>
<path d="M259.131 250.292V298.548L388.585 323.833V283.59L259.131 250.292Z" stroke="#CDDED9" stroke-width="0.515" stroke-miterlimit="10" stroke-linecap="round"/>
<path d="M388.585 283.59L378.079 286.261L378.613 322.052" stroke="#CDDED9" stroke-width="0.515" stroke-miterlimit="10" stroke-linecap="round"/>
<path d="M378.079 286.262L259.131 256.525" stroke="#CDDED9" stroke-width="0.515" stroke-miterlimit="10" stroke-linecap="round"/>
<path d="M374.518 321.162V288.398L259.131 260.086" stroke="#CDDED9" stroke-width="0.515" stroke-miterlimit="10" stroke-linecap="round"/>
<path d="M374.518 288.398H371.668V320.628" stroke="#CDDED9" stroke-width="0.515" stroke-miterlimit="10" stroke-linecap="round"/>
<path d="M347.629 281.81V315.998" stroke="#CDDED9" stroke-width="0.515" stroke-miterlimit="10" stroke-linecap="round"/>
<path d="M343.712 280.919V314.752" stroke="#CDDED9" stroke-width="0.515" stroke-miterlimit="10" stroke-linecap="round"/>
<path d="M340.863 280.919V314.752" stroke="#CDDED9" stroke-width="0.515" stroke-miterlimit="10" stroke-linecap="round"/>
<path d="M303.113 271.482V307.273" stroke="#CDDED9" stroke-width="0.515" stroke-miterlimit="10" stroke-linecap="round"/>
<path d="M297.593 306.205V269.523" stroke="#CDDED9" stroke-width="0.515" stroke-miterlimit="10" stroke-linecap="round"/>
<path d="M294.388 268.811V305.314" stroke="#CDDED9" stroke-width="0.515" stroke-miterlimit="10" stroke-linecap="round"/>
<path d="M218.71 376.541L75.3672 379.39" stroke="#CDDED9" stroke-width="1.03" stroke-miterlimit="10" stroke-linecap="round"/>
<path d="M180.604 259.373V336.832" stroke="#CDDED9" stroke-width="0.515" stroke-miterlimit="10" stroke-linecap="round"/>
<path d="M123.267 280.029V344.489" stroke="#CDDED9" stroke-width="0.515" stroke-miterlimit="10" stroke-linecap="round"/>
<path d="M88.5439 292.494V349.119" stroke="#CDDED9" stroke-width="0.515" stroke-miterlimit="10" stroke-linecap="round"/>
<path d="M42.2471 309.053V356.775" stroke="#CDDED9" stroke-width="0.515" stroke-miterlimit="10" stroke-linecap="round"/>
<path d="M42.2471 309.053L49.1916 310.122V354.46" stroke="#CDDED9" stroke-width="0.515" stroke-miterlimit="10" stroke-linecap="round"/>
<path d="M49.1909 310.122L88.5434 297.479" stroke="#CDDED9" stroke-width="0.515" stroke-miterlimit="10" stroke-linecap="round"/>
<path d="M123.267 280.029L132.527 281.097V343.064" stroke="#CDDED9" stroke-width="0.515" stroke-miterlimit="10" stroke-linecap="round"/>
<path d="M132.526 281.097L180.604 264.537" stroke="#CDDED9" stroke-width="0.515" stroke-miterlimit="10" stroke-linecap="round"/>
<path d="M135.553 342.886V282.878L180.603 267.742" stroke="#CDDED9" stroke-width="0.515" stroke-miterlimit="10" stroke-linecap="round"/>
<path d="M161.194 274.331V339.325" stroke="#CDDED9" stroke-width="0.515" stroke-miterlimit="10" stroke-linecap="round"/>
<path d="M164.934 338.791V273.084L167.605 274.331V338.435" stroke="#CDDED9" stroke-width="0.515" stroke-miterlimit="10" stroke-linecap="round"/>
<path d="M135.553 282.878L137.511 283.768V342.53" stroke="#CDDED9" stroke-width="0.515" stroke-miterlimit="10" stroke-linecap="round"/>
<path d="M137.511 283.768L161.194 276.29" stroke="#CDDED9" stroke-width="0.515" stroke-miterlimit="10" stroke-linecap="round"/>
<path d="M167.605 274.331L180.604 269.879" stroke="#CDDED9" stroke-width="0.515" stroke-miterlimit="10" stroke-linecap="round"/>
<path d="M51.5059 354.104V311.547L88.5435 300.507" stroke="#CDDED9" stroke-width="0.515" stroke-miterlimit="10" stroke-linecap="round"/>
<path d="M70.0249 306.027V351.612" stroke="#CDDED9" stroke-width="0.515" stroke-miterlimit="10" stroke-linecap="round"/>
<path d="M72.5181 351.255V305.314L74.2987 306.027V351.077" stroke="#CDDED9" stroke-width="0.515" stroke-miterlimit="10" stroke-linecap="round"/>
<path d="M51.5059 311.547L53.1085 312.081V353.927" stroke="#CDDED9" stroke-width="0.515" stroke-miterlimit="10" stroke-linecap="round"/>
<path d="M53.1089 312.081L70.0251 307.273" stroke="#CDDED9" stroke-width="0.515" stroke-miterlimit="10" stroke-linecap="round"/>
<path d="M74.2983 306.027L88.5436 301.753" stroke="#CDDED9" stroke-width="0.515" stroke-miterlimit="10" stroke-linecap="round"/>
<path d="M15.7153 227.678V573.303" stroke="#CDDED9" stroke-width="0.1545" stroke-miterlimit="10" stroke-linecap="round"/>
<path d="M218.176 163.04V678.54" stroke="#CDDED9" stroke-width="0.1545" stroke-miterlimit="10" stroke-linecap="round"/>
<path d="M232.599 168.738V693.498" stroke="#CDDED9" stroke-width="0.1545" stroke-miterlimit="10" stroke-linecap="round"/>
<path d="M402.652 157.876V743" stroke="#CDDED9" stroke-width="0.1545" stroke-miterlimit="10" stroke-linecap="round"/>
<path d="M643.575 54.9541V583.097" stroke="#CDDED9" stroke-width="0.1545" stroke-miterlimit="10" stroke-linecap="round"/>
<path d="M314.153 122.263V561.551" stroke="#CDDED9" stroke-width="0.1545" stroke-miterlimit="10" stroke-linecap="round"/>
<path d="M715.87 173.011V513.651" stroke="#CDDED9" stroke-width="0.1545" stroke-miterlimit="10" stroke-linecap="round"/>
<path d="M465.687 257.593V598.233" stroke="#CDDED9" stroke-width="0.1545" stroke-miterlimit="10" stroke-linecap="round"/>
<path d="M0.935547 267.743L672.243 1" stroke="#CDDED9" stroke-width="0.1545" stroke-miterlimit="10" stroke-linecap="round"/>
<path d="M728.69 213.432L606.715 1" stroke="#CDDED9" stroke-width="0.1545" stroke-miterlimit="10" stroke-linecap="round"/>
<path d="M575.198 138.467V320.806" stroke="#CDDED9" stroke-width="0.515" stroke-miterlimit="10" stroke-linecap="round"/>
<path d="M89.79 389.362H218.175V470.916L89.79 453.109V389.362Z" stroke="#CDDED9" stroke-width="0.515" stroke-miterlimit="10" stroke-linecap="round"/>
<path d="M97.803 389.362V451.863L89.79 453.109" stroke="#CDDED9" stroke-width="0.515" stroke-miterlimit="10" stroke-linecap="round"/>
<path d="M97.8032 451.862L218.176 467.71" stroke="#CDDED9" stroke-width="0.515" stroke-miterlimit="10" stroke-linecap="round"/>
<path d="M101.721 389.362V449.37L218.176 462.903" stroke="#CDDED9" stroke-width="0.515" stroke-miterlimit="10" stroke-linecap="round"/>
<path d="M153.895 389.362V455.424" stroke="#CDDED9" stroke-width="0.515" stroke-miterlimit="10" stroke-linecap="round"/>
<path d="M163.509 456.136V389.362" stroke="#CDDED9" stroke-width="0.515" stroke-miterlimit="10" stroke-linecap="round"/>
<path d="M159.949 389.362V456.136" stroke="#CDDED9" stroke-width="0.515" stroke-miterlimit="10" stroke-linecap="round"/>
<path d="M101.721 449.37H104.748V389.362" stroke="#CDDED9" stroke-width="0.515" stroke-miterlimit="10" stroke-linecap="round"/>
</svg>
