<svg width="12" height="16" viewBox="0 0 12 16" fill="none" xmlns="http://www.w3.org/2000/svg">
<path d="M5.88235 0C2.63922 0 0 2.71067 0 6.04333C0 10.7787 5.32941 15.668 5.55621 15.8733C5.64967 15.958 5.76601 16 5.88235 16C5.99869 16 6.11503 15.958 6.2085 15.874C6.43529 15.668 11.7647 10.7787 11.7647 6.04333C11.7647 2.71067 9.12549 0 5.88235 0ZM5.88235 9.33333C4.08039 9.33333 2.61438 7.838 2.61438 6C2.61438 4.162 4.08039 2.66667 5.88235 2.66667C7.68431 2.66667 9.15033 4.162 9.15033 6C9.15033 7.838 7.68431 9.33333 5.88235 9.33333Z" fill="url(#paint0_linear_40_1523)"/>
<defs>
<linearGradient id="paint0_linear_40_1523" x1="5.88235" y1="0" x2="5.88235" y2="16" gradientUnits="userSpaceOnUse">
<stop stop-color="#17D771"/>
<stop offset="1" stop-color="#079D4D"/>
</linearGradient>
</defs>
</svg>
