<svg width="186" height="186" viewBox="0 0 186 186" fill="none" xmlns="http://www.w3.org/2000/svg">
<g filter="url(#filter0_d_427_9314)">
<path d="M40 89C40 118.271 63.7289 142 93 142C122.271 142 146 118.271 146 89C146 59.7289 122.271 36 93 36C63.7289 36 40 59.7289 40 89Z" fill="white"/>
</g>
<g clip-path="url(#clip0_427_9314)">
<path d="M115.569 77.9567H107.194C108.057 77.5042 108.738 77.0689 109.241 76.5723C112.842 73.019 112.842 67.2411 109.241 63.688C107.497 61.9667 105.178 61.0205 102.711 61.0205C100.244 61.0205 97.9252 61.9694 96.1809 63.6906C94.9398 64.9153 93.9064 67.2016 93.0399 70.6496C92.1735 67.2012 91.1401 64.9153 89.8989 63.6904C88.1546 61.9692 85.8355 61.0208 83.3687 61.0208C80.902 61.0208 78.5829 61.9673 76.8387 63.6886C73.2379 67.2416 73.2379 73.0134 76.8386 76.5667C77.3446 77.0661 78.0295 77.5042 78.9 77.9567H70.4472C67.4639 77.9567 65.0278 80.3657 65.0278 83.3095V108.722C65.0278 111.666 67.4639 114.028 70.4472 114.028H115.569C118.552 114.028 120.972 111.666 120.972 108.722V83.3095C120.972 80.3657 118.552 77.9567 115.569 77.9567ZM98.6666 82.2232V109.761H87.4318V82.2232H98.6666ZM96.8166 73.539C97.8914 68.3635 98.9443 67.0048 99.2414 66.7115C100.168 65.7971 101.4 65.2933 102.711 65.2933C104.022 65.2933 105.254 65.7971 106.181 66.7115C108.094 68.5994 108.094 71.6712 106.181 73.5591C105.055 74.6703 100.614 75.8215 96.2796 76.491C96.4185 75.6157 96.5969 74.5963 96.8166 73.539ZM79.8991 66.7113C80.8259 65.7969 82.0581 65.2932 83.3687 65.2932C84.6794 65.2932 85.9117 65.7969 86.8383 66.7113C87.9644 67.8227 89.131 72.2041 89.8095 76.4818C88.9224 76.3447 87.8894 76.1685 86.8179 75.9518C81.5732 74.8912 80.1962 73.8521 79.8991 73.559C78.9723 72.6445 78.462 71.4285 78.462 70.1351C78.4619 68.8418 78.9724 67.6259 79.8991 66.7113ZM69.3514 108.722V83.3095C69.3514 82.7207 69.8506 82.2232 70.4472 82.2232H83.1082V109.761H70.4472C69.8506 109.761 69.3514 109.311 69.3514 108.722ZM116.649 108.722C116.649 109.311 116.165 109.761 115.569 109.761H102.99V82.2232H115.569C116.165 82.2232 116.649 82.7207 116.649 83.3095V108.722Z" fill="#08A652"/>
</g>
<defs>
<filter id="filter0_d_427_9314" x="0" y="0" width="186" height="186" filterUnits="userSpaceOnUse" color-interpolation-filters="sRGB">
<feFlood flood-opacity="0" result="BackgroundImageFix"/>
<feColorMatrix in="SourceAlpha" type="matrix" values="0 0 0 0 0 0 0 0 0 0 0 0 0 0 0 0 0 0 127 0" result="hardAlpha"/>
<feOffset dy="4"/>
<feGaussianBlur stdDeviation="20"/>
<feColorMatrix type="matrix" values="0 0 0 0 0.2625 0 0 0 0 0.2625 0 0 0 0 0.2625 0 0 0 0.25 0"/>
<feBlend mode="normal" in2="BackgroundImageFix" result="effect1_dropShadow_427_9314"/>
<feBlend mode="normal" in="SourceGraphic" in2="effect1_dropShadow_427_9314" result="shape"/>
</filter>
<clipPath id="clip0_427_9314">
<rect width="55.9444" height="53" fill="white" transform="translate(65.0278 61.0278)"/>
</clipPath>
</defs>
</svg>
