<svg width="51" height="51" viewBox="0 0 51 51" fill="none" xmlns="http://www.w3.org/2000/svg">
<circle cx="25.3333" cy="25.0667" r="24.5667" fill="white" stroke="#F0F0F0"/>
<g clip-path="url(#clip0_40_1427)">
<g clip-path="url(#clip1_40_1427)">
<path d="M29.5395 16H21.8599C18.7389 16 16.1997 18.5392 16.1997 21.6602V29.3398C16.1997 32.4608 18.7389 35 21.8599 35H29.5395C32.6606 35 35.1997 32.4608 35.1997 29.3398V21.6602C35.1997 18.5392 32.6605 16 29.5395 16ZM33.2883 29.3398C33.2883 31.4102 31.6099 33.0886 29.5395 33.0886H21.8599C19.7895 33.0886 18.1111 31.4102 18.1111 29.3398V21.6602C18.1111 19.5898 19.7895 17.9114 21.8599 17.9114H29.5395C31.6099 17.9114 33.2883 19.5898 33.2883 21.6602V29.3398Z" fill="url(#paint0_linear_40_1427)"/>
<path d="M25.6997 20.5859C22.9901 20.5859 20.7856 22.7904 20.7856 25.5C20.7856 28.2096 22.9901 30.4141 25.6997 30.4141C28.4093 30.4141 30.6138 28.2096 30.6138 25.5C30.6138 22.7904 28.4093 20.5859 25.6997 20.5859ZM25.6997 28.5027C24.0414 28.5027 22.697 27.1584 22.697 25.5C22.697 23.8417 24.0414 22.4973 25.6997 22.4973C27.3581 22.4973 28.7024 23.8417 28.7024 25.5C28.7024 27.1583 27.358 28.5027 25.6997 28.5027Z" fill="url(#paint1_linear_40_1427)"/>
<path d="M30.6233 21.8003C31.2736 21.8003 31.8008 21.2731 31.8008 20.6228C31.8008 19.9725 31.2736 19.4453 30.6233 19.4453C29.973 19.4453 29.4458 19.9725 29.4458 20.6228C29.4458 21.2731 29.973 21.8003 30.6233 21.8003Z" fill="url(#paint2_linear_40_1427)"/>
</g>
</g>
<defs>
<linearGradient id="paint0_linear_40_1427" x1="25.6997" y1="34.9447" x2="25.6997" y2="16.1476" gradientUnits="userSpaceOnUse">
<stop stop-color="#E09B3D"/>
<stop offset="0.3" stop-color="#C74C4D"/>
<stop offset="0.6" stop-color="#C21975"/>
<stop offset="1" stop-color="#7024C4"/>
</linearGradient>
<linearGradient id="paint1_linear_40_1427" x1="25.6997" y1="34.9447" x2="25.6997" y2="16.1476" gradientUnits="userSpaceOnUse">
<stop stop-color="#E09B3D"/>
<stop offset="0.3" stop-color="#C74C4D"/>
<stop offset="0.6" stop-color="#C21975"/>
<stop offset="1" stop-color="#7024C4"/>
</linearGradient>
<linearGradient id="paint2_linear_40_1427" x1="30.6233" y1="34.9447" x2="30.6233" y2="16.1476" gradientUnits="userSpaceOnUse">
<stop stop-color="#E09B3D"/>
<stop offset="0.3" stop-color="#C74C4D"/>
<stop offset="0.6" stop-color="#C21975"/>
<stop offset="1" stop-color="#7024C4"/>
</linearGradient>
<clipPath id="clip0_40_1427">
<rect width="19" height="19" fill="white" transform="translate(16.1997 16)"/>
</clipPath>
<clipPath id="clip1_40_1427">
<rect width="19" height="19" fill="white" transform="translate(16.1997 16)"/>
</clipPath>
</defs>
</svg>
