<svg width="18" height="18" viewBox="0 0 18 18" fill="none" xmlns="http://www.w3.org/2000/svg">
<path d="M10 1.06215V1H9C4.58797 1 1 4.58797 1 9C1 13.412 4.58797 17 9 17C10.4057 17 11.7889 16.6303 13.0017 15.9286L13.8669 15.428L13.3666 14.5626L12.7172 13.4393C12.9299 13.4791 13.1496 13.5 13.375 13.5C15.4384 13.5 17 11.8095 17 9.7622V9C17 4.92657 13.9416 1.55557 10 1.06215ZM13.2413 9.8256C13.2413 9.82558 13.2415 9.82513 13.2419 9.82427L13.2413 9.8256ZM9 9.74999C8.58713 9.74999 8.25001 9.41286 8.25001 9C8.25001 8.58713 8.58714 8.25001 9 8.25001C9.41287 8.25001 9.74999 8.58714 9.74999 9C9.74999 9.41288 9.41288 9.74999 9 9.74999Z" fill="url(#paint0_linear_47_1583)" stroke="#F1F0F3" stroke-width="2"/>
<defs>
<linearGradient id="paint0_linear_47_1583" x1="9" y1="2" x2="9" y2="16" gradientUnits="userSpaceOnUse">
<stop stop-color="#17D570"/>
<stop offset="1" stop-color="#07A04F"/>
</linearGradient>
</defs>
</svg>
