<svg width="20" height="20" viewBox="0 0 20 20" fill="none" xmlns="http://www.w3.org/2000/svg">
<path d="M17.3315 1.78955H2.66871C1.70097 1.78955 0.90918 2.58134 0.90918 3.54908C0.90918 4.51682 1.70097 5.30861 2.66871 5.30861H17.3315C18.2992 5.30861 19.091 4.51682 19.091 3.54908C19.091 2.58134 18.2992 1.78955 17.3315 1.78955Z" fill="#08A652"/>
<path d="M17.3315 8.24097H2.66871C1.70097 8.24097 0.90918 9.03276 0.90918 10.0005C0.90918 10.9682 1.70097 11.76 2.66871 11.76H17.3315C18.2992 11.76 19.091 10.9682 19.091 10.0005C19.091 9.03276 18.2992 8.24097 17.3315 8.24097Z" fill="#08A652"/>
<path d="M17.3315 14.6934H2.66871C1.70097 14.6934 0.90918 15.4851 0.90918 16.4529C0.90918 17.4206 1.70097 18.2124 2.66871 18.2124H17.3315C18.2992 18.2124 19.091 17.4206 19.091 16.4529C19.091 15.4851 18.2992 14.6934 17.3315 14.6934Z" fill="#08A652"/>
</svg>
