<svg width="60" height="60" viewBox="0 0 60 60" fill="none" xmlns="http://www.w3.org/2000/svg">
<g clip-path="url(#clip0_40_2127)">
<path d="M55.7309 56.5289L42.5395 50.4415C41.9193 50.1554 41.5182 49.5288 41.5182 48.8458V43.3682C43.3095 40.9795 44.372 38.0151 44.372 34.8066V24.9614H48.0798C49.0508 24.9614 49.8377 24.1745 49.8377 23.2036C49.8377 22.2332 49.0508 21.4458 48.0798 21.4458H46.6031V19.6285C46.6031 13.9632 43.7379 8.95525 39.3805 5.97612V4.85826C39.3805 3.88734 38.5936 3.10044 37.6227 3.10044C36.8857 3.10044 36.2558 3.55454 35.9944 4.19724C34.6792 3.69096 33.284 3.34809 31.8333 3.19382V1.64063C31.8333 0.66971 31.046 -0.117188 30.0755 -0.117188C29.1046 -0.117188 28.3177 0.66971 28.3177 1.64063V3.19382C26.8666 3.34809 25.4718 3.69096 24.1571 4.19679C23.8957 3.55408 23.2658 3.10044 22.5288 3.10044C21.5583 3.10044 20.771 3.88734 20.771 4.85826V5.9752C16.4135 8.95433 13.5475 13.9627 13.5475 19.628V21.4458H12.0707C11.1002 21.4458 10.3129 22.2327 10.3129 23.2036C10.3129 24.1745 11.1002 24.9614 12.0707 24.9614H15.7786V34.8066C15.7786 38.0146 16.8411 40.9795 18.6328 43.3677V48.8453C18.6328 49.5288 18.2318 50.1554 17.6115 50.4415L4.41963 56.5289C3.67027 56.875 3.2624 57.6957 3.43956 58.5023C3.61671 59.3084 4.33083 59.8829 5.15618 59.8829H54.9944C55.8202 59.8829 56.5343 59.3084 56.7115 58.5023C56.8886 57.6957 56.4807 56.875 55.7309 56.5289ZM22.7755 53.5507C22.0573 52.6329 21.7465 51.6894 21.6169 51.1451C21.9593 50.4402 22.1484 49.6565 22.1484 48.8458V46.6979C24.4185 48.2163 27.1454 49.103 30.0755 49.103C33.0057 49.103 35.7326 48.2163 38.0026 46.6979V48.8458C38.0026 49.6926 38.2086 50.5107 38.5812 51.2399C38.4306 51.7974 38.1047 52.68 37.4217 53.5411C35.934 55.4165 33.4625 56.3673 30.076 56.3673C26.694 56.3673 24.2376 55.4197 22.7755 53.5507ZM17.0631 19.6285C17.0631 16.0959 18.4785 12.8884 20.7714 10.5414V13.3928C20.7714 14.3637 21.5583 15.1506 22.5293 15.1506C23.4997 15.1506 24.2866 14.3637 24.2866 13.3928V7.97701C25.5308 7.35628 26.8876 6.92918 28.3177 6.73509V15.5493C28.3177 16.5198 29.1046 17.3072 30.0755 17.3072C31.046 17.3072 31.8333 16.5198 31.8333 15.5493V6.73509C33.2634 6.92918 34.6202 7.35673 35.8649 7.97746V13.3928C35.8649 14.3637 36.6518 15.1506 37.6227 15.1506C38.5931 15.1506 39.3805 14.3637 39.3805 13.3928V10.5423C41.6725 12.8893 43.0875 16.0964 43.0875 19.6285V21.4458H17.0631V19.6285ZM40.8563 24.9614V34.8066C40.8563 40.7511 36.02 45.5874 30.0755 45.5874C24.1305 45.5874 19.2942 40.7511 19.2942 34.8066V24.9614H40.8563ZM18.8154 53.7576C19.0722 54.3183 19.4114 54.9203 19.8596 55.5236C20.083 55.8248 20.3196 56.1045 20.565 56.3673H13.1606L18.8154 53.7576ZM39.6185 56.3673C39.8634 56.1077 40.1001 55.8313 40.3244 55.5337C40.7762 54.9345 41.1195 54.3362 41.3814 53.7791L46.9904 56.3673H39.6185Z" fill="#08A652"/>
</g>
<defs>
<clipPath id="clip0_40_2127">
<rect width="60" height="60" fill="white"/>
</clipPath>
</defs>
</svg>
