<svg width="60" height="60" viewBox="0 0 60 60" fill="none" xmlns="http://www.w3.org/2000/svg">
<path d="M53.9459 39.9234L58.0506 35.8181C60.6493 33.2199 60.6498 28.9915 58.0511 26.3919C57.2537 25.5949 56.296 25.0351 55.2729 24.7247C56.1097 23.5881 56.5624 22.2198 56.5624 20.782C56.5624 19.0018 55.8689 17.3277 54.6096 16.0689C53.3512 14.81 51.6772 14.1165 49.8965 14.1165C49.8219 14.1165 49.7473 14.1179 49.6727 14.1202C49.7308 12.3409 49.0826 10.5419 47.7272 9.18598C46.3717 7.831 44.5704 7.1819 42.7939 7.24095C42.7962 7.16679 42.7975 7.09172 42.7975 7.0171C42.7975 5.23641 42.104 3.56283 40.8452 2.30398C38.2469 -0.294279 34.0186 -0.294737 31.4189 2.30398L29.9999 3.72304L28.5813 2.30444C27.3224 1.04513 25.6484 0.351624 23.8677 0.351624C22.0874 0.351624 20.4139 1.04513 19.155 2.30352C17.7991 3.65941 17.1523 5.45888 17.2114 7.23957C17.1363 7.23683 17.0612 7.23408 16.9861 7.23408C15.2059 7.23408 13.5319 7.92713 12.2721 9.18598C10.9167 10.5423 10.2699 12.3418 10.3289 14.122C10.2534 14.1193 10.1783 14.1165 10.1028 14.1165C8.32253 14.1165 6.64849 14.81 5.39056 16.0684C4.13126 17.3273 3.43775 19.0013 3.43775 20.782C3.43775 22.2194 3.89002 23.5876 4.72726 24.7238C3.68906 25.0369 2.73737 25.6036 1.94865 26.3919C-0.643661 28.9851 -0.649612 33.2002 1.93125 35.7998C1.93766 35.8067 1.94407 35.8131 1.95048 35.82L6.06118 39.9298C6.06668 39.9357 6.07263 39.9417 6.07858 39.9476C6.32531 40.1948 6.58898 40.4187 6.86547 40.6214L5.64966 41.8373C4.46726 43.0197 3.86484 44.6305 3.9541 46.3732C4.03925 48.0463 4.75931 49.6403 5.98062 50.8616L12.9336 57.815C14.2235 59.1045 15.9173 59.7495 17.6114 59.7495C19.3056 59.7495 20.9998 59.1045 22.2893 57.815L25.5211 54.5827C26.9956 54.899 28.4975 55.0597 30.0008 55.0597C31.5027 55.0597 33.0051 54.9 34.4791 54.5836L37.71 57.815C38.9999 59.1045 40.6937 59.7495 42.3878 59.7495C44.0816 59.749 45.7762 59.1045 47.0657 57.815L54.0191 50.8616C56.5981 48.2826 56.8911 44.3788 54.6719 42.1591L53.191 40.6782L53.9216 39.9472C53.9299 39.9394 53.9376 39.9316 53.9459 39.9234ZM21.6988 4.84777C22.2783 4.26824 23.0487 3.94918 23.8681 3.94918C24.6875 3.94918 25.4579 4.26824 26.0375 4.84777L31.543 10.3533C32.7391 11.5499 32.7391 13.4963 31.543 14.6924C30.9635 15.2719 30.193 15.591 29.3741 15.591H29.3736C28.5543 15.5905 27.7843 15.2719 27.2048 14.6924C27.2039 14.6915 27.2029 14.6906 27.2025 14.6901L21.7002 9.18781C21.6956 9.18323 21.6915 9.17866 21.6864 9.17454C20.5027 7.97657 20.5068 6.03932 21.6988 4.84777ZM14.8081 16.0607C13.6202 14.8636 13.623 12.9232 14.8159 11.7302C15.3959 11.1507 16.1667 10.8316 16.9861 10.8316C17.8046 10.8316 18.5741 11.1502 19.1536 11.7293C19.1541 11.7293 19.1546 11.7298 19.1546 11.7302C19.1569 11.7321 19.1587 11.7339 19.1605 11.7357L24.6596 17.2348C24.6628 17.2385 24.6669 17.2421 24.6706 17.2458L26.037 18.6122C26.6165 19.1917 26.9361 19.9622 26.9361 20.782C26.9361 21.6014 26.617 22.3718 26.0375 22.9509C25.4579 23.5304 24.6875 23.8495 23.8681 23.8495C23.0487 23.8495 22.2783 23.5304 21.6993 22.9509C21.6919 22.9436 21.6846 22.9367 21.6773 22.9298L20.3283 21.5804C20.3264 21.5785 20.3246 21.5767 20.3228 21.5744L14.8163 16.0689L14.8159 16.0684C14.8131 16.0657 14.8104 16.0629 14.8081 16.0607ZM7.93481 18.6122C8.51388 18.0332 9.28383 17.7141 10.1032 17.7141C10.9226 17.7141 11.693 18.0332 12.2726 18.6127L17.7845 24.1246C18.9747 25.3212 18.9724 27.263 17.779 28.4573C17.1995 29.0364 16.4286 29.3554 15.6092 29.3554C14.7898 29.3554 14.0194 29.0364 13.4403 28.4569C13.433 28.45 13.4261 28.4427 13.4188 28.4358L7.95174 22.9687C7.94579 22.9628 7.93984 22.9564 7.93435 22.9509C7.35482 22.3714 7.03576 21.6014 7.03576 20.782C7.0353 19.9626 7.35482 19.1922 7.93481 18.6122ZM4.5112 33.2931C4.50433 33.2858 4.49747 33.2789 4.4906 33.2721C3.29676 32.0759 3.29767 30.1314 4.49289 28.9361C5.07242 28.3566 5.84283 28.0375 6.66223 28.0375C7.48162 28.0375 8.25249 28.3566 8.83202 28.9366L12.961 33.0652C14.1572 34.2613 14.1572 36.2077 12.9615 37.4038C12.382 37.9834 11.6116 38.3024 10.7926 38.3024H10.7922C10.6416 38.3024 10.4928 38.2914 10.3463 38.2704C10.3353 38.2681 10.3243 38.2667 10.3133 38.2649C9.68163 38.1665 9.09844 37.8744 8.63564 37.4171C8.63106 37.4121 8.62603 37.4075 8.62145 37.4025L4.5112 33.2931ZM25.4236 50.8634C25.4081 50.8593 25.3929 50.8575 25.3778 50.8538C25.3417 50.8451 25.306 50.8369 25.2698 50.8305C25.2433 50.8259 25.2167 50.8227 25.1897 50.819C25.1599 50.8153 25.1302 50.8117 25.1 50.8094C25.0684 50.8067 25.0368 50.8053 25.0052 50.8048C24.9796 50.8039 24.9544 50.8034 24.9288 50.8039C24.8949 50.8044 24.8615 50.8062 24.8281 50.8089C24.8038 50.8108 24.7795 50.8126 24.7553 50.8153C24.7223 50.819 24.6898 50.824 24.6573 50.8295C24.6317 50.8337 24.6065 50.8387 24.5809 50.8442C24.5511 50.8506 24.5218 50.8575 24.4925 50.8657C24.4646 50.873 24.4367 50.8813 24.4088 50.89C24.3827 50.8987 24.3575 50.9078 24.3319 50.917C24.3021 50.9284 24.2723 50.9399 24.2435 50.9527C24.2202 50.9627 24.1968 50.9737 24.1739 50.9847C24.1446 50.9989 24.1158 51.0136 24.0874 51.0296C24.0641 51.0424 24.0412 51.0561 24.0183 51.0703C23.9927 51.0863 23.9666 51.1024 23.9414 51.1198C23.9157 51.1376 23.8906 51.1564 23.8659 51.1756C23.8453 51.1912 23.8251 51.2067 23.805 51.2232C23.7757 51.2479 23.7477 51.2736 23.7203 51.3001C23.7098 51.3102 23.6983 51.3189 23.6878 51.3294L19.746 55.2712C18.5691 56.4481 16.6547 56.4481 15.4778 55.2712L8.52486 48.3183C7.93435 47.7277 7.58691 46.972 7.54708 46.1897C7.51092 45.4769 7.74026 44.8347 8.1939 44.3815L10.6777 41.8972C10.7157 41.8977 10.7537 41.9 10.7922 41.9C10.7922 41.9 10.7922 41.9 10.7926 41.9C12.5724 41.9 14.246 41.2065 15.5053 39.9476C17.432 38.0204 17.9287 35.1979 16.9976 32.8074C18.2482 32.5438 19.3976 31.9258 20.3232 31.0011C21.3802 29.9432 22.0073 28.6152 22.2037 27.2374C22.7411 27.3752 23.2991 27.447 23.8681 27.447C23.8681 27.447 23.8681 27.447 23.8686 27.447C25.6484 27.447 27.322 26.754 28.5813 25.4951C29.8401 24.2363 30.5336 22.5623 30.5336 20.782C30.5336 20.2139 30.4622 19.6568 30.3253 19.1203C31.7444 18.9189 33.0554 18.268 34.0868 17.2357C36.6855 14.6375 36.6855 10.4091 34.0872 7.80995L32.5437 6.26637L33.9627 4.84777C35.1593 3.65163 37.1057 3.65163 38.3014 4.84731C38.8809 5.42684 39.2 6.19725 39.2 7.01664C39.2 7.83604 38.8809 8.60645 38.3014 9.18598C37.9503 9.53708 37.7745 9.99759 37.7745 10.4581C37.7745 10.9182 37.9498 11.3787 38.3014 11.7298C39.0041 12.4324 40.1425 12.4324 40.8452 11.7298C42.0408 10.5341 43.9873 10.5336 45.1838 11.7298C46.38 12.9264 46.3795 14.8728 45.1834 16.0689C44.8323 16.42 44.6565 16.8805 44.6565 17.3406C44.6565 17.8011 44.8318 18.2611 45.1834 18.6122C45.8861 19.3149 47.0245 19.3149 47.7272 18.6127C48.3067 18.0332 49.0776 17.7141 49.897 17.7136C50.7164 17.7136 51.4868 18.0327 52.0658 18.6122C52.6458 19.1922 52.9649 19.9626 52.9649 20.782C52.9649 21.5904 52.6541 22.3512 52.0892 22.9275C52.081 22.9358 52.0727 22.9436 52.0649 22.9518L49.4854 25.5318C48.8432 26.174 48.7805 27.1944 49.3394 27.9103L49.4319 28.0289C49.9894 28.7434 50.9919 28.9311 51.7701 28.4674C52.9763 27.7487 54.513 27.9414 55.5073 28.9352C56.7034 30.1318 56.7034 32.0782 55.5073 33.2744L51.3787 37.4025C51.371 37.4107 51.3627 37.4189 51.3549 37.4272L42.4931 46.289C38.0469 50.7352 31.5064 52.488 25.4236 50.8634ZM52.1286 44.7028C52.9173 45.492 52.6124 47.1816 51.4758 48.3183L44.5224 55.2712C43.3455 56.4481 41.4311 56.4481 40.2542 55.2712L38.3408 53.3578C40.8278 52.2962 43.1056 50.7641 45.0369 48.8328L50.6472 43.222L52.1286 44.7028Z" fill="#08A652"/>
</svg>
