<svg width="60" height="60" viewBox="0 0 60 60" fill="none" xmlns="http://www.w3.org/2000/svg">
<path d="M54.8906 3C53.4867 3 6.51327 3 5.10938 3C3.94437 3 3 3.94437 3 5.10938V54.8906C3 56.0556 3.94437 57 5.10938 57H54.8906C56.0556 57 57 56.0556 57 54.8906C57 53.2137 57 7.44456 57 5.10938C57 3.94437 56.0556 3 54.8906 3ZM7.21875 7.21875H27.8906V19.5937C27.1095 19.5937 8.77642 19.5937 7.21875 19.5937V7.21875ZM7.21875 23.8125H19.5937V36.1874H7.21875V23.8125ZM27.8906 52.7812H7.21875V40.4063H27.8906V52.7812ZM23.8125 36.1875V23.8125H36.1875V36.1874C34.6918 36.1875 25.3181 36.1875 23.8125 36.1875ZM52.7812 52.7812H32.1094V40.4063H52.7812V52.7812ZM52.7812 36.1875H40.4063V23.8125H52.7812V36.1875ZM52.7812 19.5937C51.2173 19.5937 32.867 19.5937 32.1094 19.5937V7.21875H52.7812V19.5937Z" fill="#08A652"/>
</svg>
