<svg width="87" height="171" viewBox="0 0 87 171" fill="none" xmlns="http://www.w3.org/2000/svg">
<path d="M57.5576 24.8999C58.3576 21.2999 61.2576 18.1999 63.9576 18.0999C64.6576 18.0999 65.1576 18.1999 65.7576 18.3999L60.7576 15.7999C60.2576 15.4999 59.6576 15.3999 58.9576 15.4999C56.1576 15.6999 53.3576 18.6999 52.5576 22.2999C51.9576 24.9999 52.7577 27.2999 54.3577 28.0999L59.3577 30.6999C57.7577 29.8999 56.9576 27.6999 57.5576 24.8999Z" fill="url(#paint0_linear_428_9543)"/>
<path d="M54.6574 156C53.6574 160.5 49.9574 164.5 46.4574 164.7L4.75742 167.4C1.25742 167.6 -0.742581 164.1 0.257419 159.6L26.9574 38.5999C27.9574 34.0999 31.4574 27.6999 34.7574 24.4999L57.0574 2.59993C60.3574 -0.600066 64.5574 -0.900066 66.4574 1.99993L79.6574 21.4999C81.5574 24.3999 82.3575 30.3999 81.3575 34.9999L54.6574 156ZM52.5574 22.2999C51.7574 25.8999 53.3574 28.6999 56.1574 28.4999C58.9574 28.2999 61.7574 25.2999 62.5574 21.6999C63.3574 18.0999 61.7574 15.2999 58.9574 15.4999C56.2574 15.6999 53.3574 18.6999 52.5574 22.2999Z" fill="url(#paint1_linear_428_9543)"/>
<path d="M49.4576 107.7C48.4576 107.8 47.7576 107.4 47.2576 106.6C46.7576 105.8 46.6576 104.8 46.9576 103.5C47.2576 102.3 47.7576 101.2 48.6576 100.3C49.5576 99.4 50.4576 99 51.3576 98.9C52.2576 98.8 53.0576 99.2 53.4576 100C53.9576 100.8 54.0576 101.8 53.7576 103C53.4576 104.2 52.9576 105.3 52.0576 106.2C51.2576 107.1 50.3576 107.6 49.4576 107.7ZM53.0576 91.3C51.3576 91.4 49.5576 92.1 47.8576 93.2001C46.1576 94.4001 44.6576 95.9 43.3576 97.8C42.0576 99.7001 41.2576 101.7 40.7576 103.9C40.2576 106.1 40.2576 108.1 40.7576 109.9C41.2576 111.7 42.0576 113.1 43.3576 114C44.5576 115 46.0576 115.4 47.8576 115.3C49.5576 115.2 51.3576 114.5 53.0576 113.4C54.7576 112.2 56.2576 110.7 57.5576 108.8C58.8576 106.9 59.6576 104.8 60.1576 102.7C60.6576 100.5 60.6576 98.5 60.1576 96.8C59.6576 95 58.8576 93.7001 57.6576 92.7001C56.2576 91.6 54.7576 91.2 53.0576 91.3ZM60.8576 64.8L55.1576 65.2001C54.6576 65.2001 54.2576 65.5 53.9576 66L22.1576 115.2C22.0576 115.4 21.9576 115.5 21.9576 115.8C21.8576 116.3 22.0576 116.5 22.5576 116.5L28.2576 116.1C28.7576 116.1 29.1576 115.8 29.4576 115.3L61.2576 66.1C61.4576 65.9 61.5576 65.6 61.5576 65.4C61.5576 65.2 61.5576 65.1 61.4576 64.9C61.2576 64.8 61.0576 64.8 60.8576 64.8ZM32.5576 82.2001C31.5576 82.3001 30.8576 81.9 30.3576 81.1C29.8576 80.3 29.7576 79.3 30.0576 78C30.3576 76.8 30.8576 75.7 31.7576 74.8C32.6576 73.9 33.5576 73.5 34.4576 73.4C35.3576 73.3 36.1576 73.7 36.5576 74.5C37.0576 75.3 37.1576 76.3 36.8576 77.5C36.5576 78.7 36.0576 79.8001 35.1576 80.7001C34.4576 81.7001 33.5576 82.1 32.5576 82.2001ZM36.1576 65.8C34.4576 65.9 32.6576 66.5001 30.9576 67.7001C29.2576 68.9001 27.7576 70.4 26.4576 72.3C25.1576 74.2 24.2576 76.2 23.8576 78.4C23.3576 80.6 23.3576 82.6 23.8576 84.4C24.3576 86.2 25.1576 87.6 26.4576 88.5C27.6576 89.5 29.1576 89.9 30.9576 89.8C32.6576 89.7 34.4576 89 36.1576 87.9C37.8576 86.7 39.3576 85.2 40.6576 83.3C41.9576 81.4 42.7576 79.3001 43.2576 77.2001C43.7576 75.0001 43.7576 73 43.2576 71.3C42.7576 69.5 41.9576 68.2001 40.7576 67.2001C39.4576 66.1001 37.9576 65.7 36.1576 65.8Z" fill="url(#paint2_linear_428_9543)"/>
<path d="M59.7572 158.6L86.4572 37.6C87.4572 33.1 86.7572 27 84.7572 24.1L71.5572 4.6C71.1572 4 70.5572 3.5 69.9572 3.1C68.2572 2.2 66.6572 1.4 64.9572 0.5C65.5572 0.8 66.1572 1.3 66.5572 2L79.7572 21.5C81.6572 24.4 82.4572 30.4 81.4572 35L54.7572 156C53.7572 160.5 50.0572 164.5 46.5572 164.7L4.85724 167.4C4.05724 167.5 3.25723 167.3 2.65723 167C4.35723 167.9 5.95723 168.7 7.65723 169.6C8.25723 169.9 9.05724 170.1 9.85724 170L51.5572 167.3C55.0572 167 58.6572 163.1 59.7572 158.6Z" fill="url(#paint3_linear_428_9543)"/>
<defs>
<linearGradient id="paint0_linear_428_9543" x1="55.7275" y1="16.8554" x2="63.0129" y2="28.4318" gradientUnits="userSpaceOnUse">
<stop stop-color="#FFD540"/>
<stop offset="1" stop-color="#FF7B00"/>
</linearGradient>
<linearGradient id="paint1_linear_428_9543" x1="142.519" y1="89.501" x2="13.2967" y2="82.6111" gradientUnits="userSpaceOnUse">
<stop stop-color="#FFD540"/>
<stop offset="1" stop-color="#FF7B00"/>
</linearGradient>
<linearGradient id="paint2_linear_428_9543" x1="85.4517" y1="61.9184" x2="23.1879" y2="102.961" gradientUnits="userSpaceOnUse">
<stop offset="0.2043" stop-color="white"/>
<stop offset="0.9946" stop-color="#FFD9D0"/>
</linearGradient>
<linearGradient id="paint3_linear_428_9543" x1="66.6271" y1="83.2097" x2="-26.3191" y2="90.6562" gradientUnits="userSpaceOnUse">
<stop stop-color="#FFD540"/>
<stop offset="1" stop-color="#FF7B00"/>
</linearGradient>
</defs>
</svg>
