<svg width="527" height="539" viewBox="0 0 527 539" fill="none" xmlns="http://www.w3.org/2000/svg">
<g opacity="0.4">
<path opacity="0.5" d="M178.794 230.259L523.778 135.927" stroke="#FAFAFA" stroke-width="0.1545" stroke-miterlimit="10" stroke-linecap="round"/>
<path d="M454.447 48.4241L527 177.809" stroke="#FAFAFA" stroke-width="0.2575" stroke-miterlimit="10" stroke-linecap="round"/>
<path d="M527 325.365L308.05 531.299" stroke="#FAFAFA" stroke-width="0.2575" stroke-miterlimit="10" stroke-linecap="round"/>
<path d="M527 317.117L308.05 493.153" stroke="#FAFAFA" stroke-width="0.2575" stroke-miterlimit="10" stroke-linecap="round"/>
<path d="M0.30957 211.702L165.778 149.844" stroke="#FAFAFA" stroke-width="0.2575" stroke-miterlimit="10" stroke-linecap="round"/>
<path d="M454.446 235.285L147.35 149.844" stroke="#FAFAFA" stroke-width="0.2575" stroke-miterlimit="10" stroke-linecap="round"/>
<path d="M0.30957 329.489L177.377 384.387" stroke="#FAFAFA" stroke-width="0.2575" stroke-miterlimit="10" stroke-linecap="round"/>
<path d="M335.629 493.154L0.30957 345.211" stroke="#FAFAFA" stroke-width="0.2575" stroke-miterlimit="10" stroke-linecap="round"/>
<path d="M335.629 531.299L0.30957 360.933" stroke="#FAFAFA" stroke-width="0.2575" stroke-miterlimit="10" stroke-linecap="round"/>
<path d="M322.999 213.635L527 255.775" stroke="#FAFAFA" stroke-width="0.2575" stroke-miterlimit="10" stroke-linecap="round"/>
<path d="M344.907 215.181L0.30957 261.446" stroke="#FAFAFA" stroke-width="0.2575" stroke-miterlimit="10" stroke-linecap="round"/>
<path d="M0.30957 326.267L354.572 422.919" stroke="#FAFAFA" stroke-width="0.2575" stroke-miterlimit="10" stroke-linecap="round"/>
<path d="M327.767 422.919L527 305.777" stroke="#FAFAFA" stroke-width="0.2575" stroke-miterlimit="10" stroke-linecap="round"/>
<path d="M488.081 59.6357L0.30957 234.641" stroke="#FAFAFA" stroke-width="0.2575" stroke-miterlimit="10" stroke-linecap="round"/>
<path d="M177.377 272.4L0.30957 275.879" stroke="#FAFAFA" stroke-width="0.2575" stroke-miterlimit="10" stroke-linecap="round"/>
<path d="M147.35 272.4L527 278.972" stroke="#FAFAFA" stroke-width="0.2575" stroke-miterlimit="10" stroke-linecap="round"/>
<path d="M156.242 384.387L527 290.57" stroke="#FAFAFA" stroke-width="0.2575" stroke-miterlimit="10" stroke-linecap="round"/>
<g opacity="0.5">
<path opacity="0.5" d="M454.447 44.429L527 173.685" stroke="#FAFAFA" stroke-width="0.1545" stroke-miterlimit="10" stroke-linecap="round"/>
<path opacity="0.5" d="M527 321.37L308.05 527.304" stroke="#FAFAFA" stroke-width="0.1545" stroke-miterlimit="10" stroke-linecap="round"/>
<path opacity="0.5" d="M527 313.122L308.05 489.158" stroke="#FAFAFA" stroke-width="0.1545" stroke-miterlimit="10" stroke-linecap="round"/>
<path opacity="0.5" d="M0.30957 207.578L165.778 145.849" stroke="#FAFAFA" stroke-width="0.1545" stroke-miterlimit="10" stroke-linecap="round"/>
<path opacity="0.5" d="M454.446 231.29L147.35 145.849" stroke="#FAFAFA" stroke-width="0.1545" stroke-miterlimit="10" stroke-linecap="round"/>
<path opacity="0.5" d="M0.30957 325.494L177.377 380.392" stroke="#FAFAFA" stroke-width="0.1545" stroke-miterlimit="10" stroke-linecap="round"/>
<path opacity="0.5" d="M335.629 489.158L0.30957 341.087" stroke="#FAFAFA" stroke-width="0.1545" stroke-miterlimit="10" stroke-linecap="round"/>
<path opacity="0.5" d="M335.629 527.304L0.30957 356.809" stroke="#FAFAFA" stroke-width="0.1545" stroke-miterlimit="10" stroke-linecap="round"/>
<path opacity="0.5" d="M322.999 209.64L527 251.651" stroke="#FAFAFA" stroke-width="0.1545" stroke-miterlimit="10" stroke-linecap="round"/>
<path opacity="0.5" d="M344.907 211.057L0.30957 257.45" stroke="#FAFAFA" stroke-width="0.1545" stroke-miterlimit="10" stroke-linecap="round"/>
<path opacity="0.5" d="M0.30957 322.272L354.572 418.924" stroke="#FAFAFA" stroke-width="0.1545" stroke-miterlimit="10" stroke-linecap="round"/>
<path opacity="0.5" d="M327.767 418.924L527 301.782" stroke="#FAFAFA" stroke-width="0.1545" stroke-miterlimit="10" stroke-linecap="round"/>
<path opacity="0.5" d="M488.081 55.6406L0.30957 230.646" stroke="#FAFAFA" stroke-width="0.1545" stroke-miterlimit="10" stroke-linecap="round"/>
<path opacity="0.5" d="M177.377 268.275L0.30957 271.884" stroke="#FAFAFA" stroke-width="0.1545" stroke-miterlimit="10" stroke-linecap="round"/>
<path opacity="0.5" d="M147.35 268.275L527 274.977" stroke="#FAFAFA" stroke-width="0.1545" stroke-miterlimit="10" stroke-linecap="round"/>
<path opacity="0.5" d="M156.242 380.392L527 286.575" stroke="#FAFAFA" stroke-width="0.1545" stroke-miterlimit="10" stroke-linecap="round"/>
</g>
<g opacity="0.5">
<path opacity="0.5" d="M454.447 51.5168L527 180.902" stroke="#FAFAFA" stroke-width="0.1545" stroke-miterlimit="10" stroke-linecap="round"/>
<path opacity="0.5" d="M527 328.458L308.05 534.392" stroke="#FAFAFA" stroke-width="0.1545" stroke-miterlimit="10" stroke-linecap="round"/>
<path opacity="0.5" d="M527 320.21L308.05 496.246" stroke="#FAFAFA" stroke-width="0.1545" stroke-miterlimit="10" stroke-linecap="round"/>
<path opacity="0.5" d="M0.30957 214.794L165.778 152.937" stroke="#FAFAFA" stroke-width="0.1545" stroke-miterlimit="10" stroke-linecap="round"/>
<path opacity="0.5" d="M454.446 238.378L147.35 152.937" stroke="#FAFAFA" stroke-width="0.1545" stroke-miterlimit="10" stroke-linecap="round"/>
<path opacity="0.5" d="M0.30957 332.582L177.377 387.48" stroke="#FAFAFA" stroke-width="0.1545" stroke-miterlimit="10" stroke-linecap="round"/>
<path opacity="0.5" d="M335.629 496.246L0.30957 348.304" stroke="#FAFAFA" stroke-width="0.1545" stroke-miterlimit="10" stroke-linecap="round"/>
<path opacity="0.5" d="M335.629 534.392L0.30957 364.026" stroke="#FAFAFA" stroke-width="0.1545" stroke-miterlimit="10" stroke-linecap="round"/>
<path opacity="0.5" d="M322.999 216.728L527 258.868" stroke="#FAFAFA" stroke-width="0.1545" stroke-miterlimit="10" stroke-linecap="round"/>
<path opacity="0.5" d="M344.907 218.274L0.30957 264.538" stroke="#FAFAFA" stroke-width="0.1545" stroke-miterlimit="10" stroke-linecap="round"/>
<path opacity="0.5" d="M0.30957 329.36L354.572 426.012" stroke="#FAFAFA" stroke-width="0.1545" stroke-miterlimit="10" stroke-linecap="round"/>
<path opacity="0.5" d="M327.767 426.012L527 308.869" stroke="#FAFAFA" stroke-width="0.1545" stroke-miterlimit="10" stroke-linecap="round"/>
<path opacity="0.5" d="M488.081 62.7283L0.30957 237.862" stroke="#FAFAFA" stroke-width="0.1545" stroke-miterlimit="10" stroke-linecap="round"/>
<path opacity="0.5" d="M177.377 275.492L0.30957 278.972" stroke="#FAFAFA" stroke-width="0.1545" stroke-miterlimit="10" stroke-linecap="round"/>
<path opacity="0.5" d="M147.35 275.492L527 282.065" stroke="#FAFAFA" stroke-width="0.1545" stroke-miterlimit="10" stroke-linecap="round"/>
<path opacity="0.5" d="M156.242 387.48L527 293.663" stroke="#FAFAFA" stroke-width="0.1545" stroke-miterlimit="10" stroke-linecap="round"/>
</g>
<path d="M6.10889 209.898V363.897L11.0059 366.346V207.965L6.10889 209.898Z" stroke="#FAFAFA" stroke-width="0.2575" stroke-miterlimit="10" stroke-linecap="round"/>
<path d="M11.0059 207.965L16.2895 209.125V364.67L11.0059 366.346" stroke="#FAFAFA" stroke-width="0.2575" stroke-miterlimit="10" stroke-linecap="round"/>
<path d="M167.969 381.423V155.644L178.794 158.608V378.717L167.969 381.423Z" stroke="#FAFAFA" stroke-width="0.2575" stroke-miterlimit="10" stroke-linecap="round"/>
<path d="M167.969 155.644L157.531 158.865V378.202L167.969 381.423V155.644Z" stroke="#FAFAFA" stroke-width="0.2575" stroke-miterlimit="10" stroke-linecap="round"/>
<path d="M219.001 232.837V385.934L226.991 388.125V231.806L219.001 232.837Z" stroke="#FAFAFA" stroke-width="0.2575" stroke-miterlimit="10" stroke-linecap="round"/>
<path d="M226.991 231.806L234.981 233.094V385.161L226.991 388.125" stroke="#FAFAFA" stroke-width="0.2575" stroke-miterlimit="10" stroke-linecap="round"/>
<path d="M336.273 417.893V216.341L325.062 217.759V414.929L336.273 417.893Z" stroke="#FAFAFA" stroke-width="0.2575" stroke-miterlimit="10" stroke-linecap="round"/>
<path d="M336.273 216.341L346.454 218.532V411.965L336.273 417.893V216.341Z" stroke="#FAFAFA" stroke-width="0.2575" stroke-miterlimit="10" stroke-linecap="round"/>
<path d="M465.4 67.8835V383.357L471.457 377.686V78.7086L465.4 67.8835Z" stroke="#FAFAFA" stroke-width="0.515" stroke-miterlimit="10" stroke-linecap="round"/>
<path d="M465.4 67.8835L455.864 71.2342V382.068L465.4 383.357V67.8835Z" stroke="#FAFAFA" stroke-width="0.515" stroke-miterlimit="10" stroke-linecap="round"/>
<path d="M517.722 161.185V334.128L514.113 337.479V154.742L517.722 161.185Z" stroke="#FAFAFA" stroke-width="0.2575" stroke-miterlimit="10" stroke-linecap="round"/>
<path d="M514.113 154.742L508.314 156.675V337.479H514.113" stroke="#FAFAFA" stroke-width="0.2575" stroke-miterlimit="10" stroke-linecap="round"/>
<path d="M291.426 130.256V359.387L299.674 360.933V127.292L291.426 130.256Z" stroke="#FAFAFA" stroke-width="0.2575" stroke-miterlimit="10" stroke-linecap="round"/>
<path d="M299.673 127.292L308.05 131.803V356.938L299.673 360.933V127.292Z" stroke="#FAFAFA" stroke-width="0.2575" stroke-miterlimit="10" stroke-linecap="round"/>
<path d="M473.39 384.387L0.30957 319.308" stroke="#FAFAFA" stroke-width="0.2575" stroke-miterlimit="10" stroke-linecap="round"/>
<path d="M508.314 370.985L429.961 362.866V235.672" stroke="#FAFAFA" stroke-width="0.515" stroke-miterlimit="10" stroke-linecap="round"/>
<path d="M420.167 102.936L332.407 132.06" stroke="#FAFAFA" stroke-width="0.515" stroke-miterlimit="10" stroke-linecap="round"/>
<path d="M337.948 126.132V216.341" stroke="#FAFAFA" stroke-width="0.515" stroke-miterlimit="10" stroke-linecap="round"/>
<path d="M337.948 130.256L355.861 138.117L415.914 119.431" stroke="#FAFAFA" stroke-width="0.515" stroke-miterlimit="10" stroke-linecap="round"/>
<path d="M355.861 138.117V219.434" stroke="#FAFAFA" stroke-width="0.515" stroke-miterlimit="10" stroke-linecap="round"/>
<path d="M362.176 221.754V142.499L415.914 126.132" stroke="#FAFAFA" stroke-width="0.515" stroke-miterlimit="10" stroke-linecap="round"/>
<path d="M362.176 142.499L366.686 145.205L415.914 130.256" stroke="#FAFAFA" stroke-width="0.515" stroke-miterlimit="10" stroke-linecap="round"/>
<path d="M366.687 145.205V222.656" stroke="#FAFAFA" stroke-width="0.515" stroke-miterlimit="10" stroke-linecap="round"/>
<path d="M395.038 132.576V228.455" stroke="#FAFAFA" stroke-width="0.515" stroke-miterlimit="10" stroke-linecap="round"/>
<path d="M399.032 229.357V131.287L402.383 134.38V230.002" stroke="#FAFAFA" stroke-width="0.515" stroke-miterlimit="10" stroke-linecap="round" stroke-linejoin="round"/>
<path d="M479.705 132.963V216.341L502.902 228.197V163.505L479.705 132.963Z" stroke="#FAFAFA" stroke-width="0.515" stroke-miterlimit="10" stroke-linecap="round"/>
<path d="M502.902 163.505H496.329L479.705 146.107" stroke="#FAFAFA" stroke-width="0.515" stroke-miterlimit="10" stroke-linecap="round"/>
<path d="M496.329 163.505V224.589" stroke="#FAFAFA" stroke-width="0.515" stroke-miterlimit="10" stroke-linecap="round"/>
<path d="M494.139 223.687V165.051L479.705 149.844" stroke="#FAFAFA" stroke-width="0.515" stroke-miterlimit="10" stroke-linecap="round"/>
<path d="M494.139 165.051H492.334L479.705 152.938" stroke="#FAFAFA" stroke-width="0.515" stroke-miterlimit="10" stroke-linecap="round"/>
<path d="M492.334 165.051V222.785" stroke="#FAFAFA" stroke-width="0.515" stroke-miterlimit="10" stroke-linecap="round"/>
<path d="M314.623 412.481V244.048L241.167 251.781V391.991L259.982 384.387V249.847" stroke="#FAFAFA" stroke-width="0.515" stroke-miterlimit="10" stroke-linecap="round"/>
<path d="M259.982 384.387L314.623 398.563" stroke="#FAFAFA" stroke-width="0.515" stroke-miterlimit="10" stroke-linecap="round"/>
<path d="M284.596 263.25L266.167 264.668V298.947H284.596V263.25Z" stroke="#FAFAFA" stroke-width="0.515" stroke-miterlimit="10" stroke-linecap="round"/>
<path d="M288.591 263.25V298.947H311.272V261.446L288.591 263.25Z" stroke="#FAFAFA" stroke-width="0.515" stroke-miterlimit="10" stroke-linecap="round"/>
<path d="M266.167 303.328H284.596V336.19L266.167 335.03V303.328Z" stroke="#FAFAFA" stroke-width="0.515" stroke-miterlimit="10" stroke-linecap="round"/>
<path d="M288.591 303.328V336.19L311.272 337.479V303.844L288.591 303.328Z" stroke="#FAFAFA" stroke-width="0.515" stroke-miterlimit="10" stroke-linecap="round"/>
<path d="M357.923 244.048V276.008L421.971 277.168V252.167L357.923 244.048Z" stroke="#FAFAFA" stroke-width="0.515" stroke-miterlimit="10" stroke-linecap="round"/>
<path d="M414.754 277.039V251.265" stroke="#FAFAFA" stroke-width="0.515" stroke-miterlimit="10" stroke-linecap="round"/>
<path d="M387.692 247.786V276.524" stroke="#FAFAFA" stroke-width="0.515" stroke-miterlimit="10" stroke-linecap="round"/>
<path d="M392.976 248.43V276.524" stroke="#FAFAFA" stroke-width="0.515" stroke-miterlimit="10" stroke-linecap="round"/>
<path d="M383.955 247.786V276.524" stroke="#FAFAFA" stroke-width="0.515" stroke-miterlimit="10" stroke-linecap="round"/>
<path d="M479.705 259.255V278.199L502.902 278.585V262.477L479.705 259.255Z" stroke="#FAFAFA" stroke-width="0.515" stroke-miterlimit="10" stroke-linecap="round"/>
<path d="M499.422 261.961V278.457" stroke="#FAFAFA" stroke-width="0.515" stroke-miterlimit="10" stroke-linecap="round"/>
<path d="M491.303 260.93V278.327" stroke="#FAFAFA" stroke-width="0.515" stroke-miterlimit="10" stroke-linecap="round"/>
<path d="M488.082 260.672V278.328" stroke="#FAFAFA" stroke-width="0.515" stroke-miterlimit="10" stroke-linecap="round"/>
<path d="M486.148 260.157V278.328" stroke="#FAFAFA" stroke-width="0.515" stroke-miterlimit="10" stroke-linecap="round"/>
<path d="M6.10889 206.16V347.788L317.845 485.292L465.401 366.474L429.961 362.866L336.273 417.893V216.341L185.882 236.445V376.913" stroke="#FAFAFA" stroke-width="1.03" stroke-miterlimit="10" stroke-linecap="round"/>
<path d="M465.4 59.6357V243.017" stroke="#FAFAFA" stroke-width="1.03" stroke-miterlimit="10" stroke-linecap="round"/>
<path d="M157.917 152.808V272.786H167.969V381.423L185.882 376.913L241.167 391.991" stroke="#FAFAFA" stroke-width="1.03" stroke-miterlimit="10" stroke-linecap="round"/>
<path d="M54.95 346.5L16.2891 351.912V275.879L54.1768 274.848L54.95 346.5ZM54.95 346.5L167.969 381.423" stroke="#FAFAFA" stroke-width="1.03" stroke-miterlimit="10" stroke-linecap="round"/>
<path d="M6.10889 347.788V363.897L317.716 522.149V485.292" stroke="#FAFAFA" stroke-width="1.03" stroke-miterlimit="10" stroke-linecap="round"/>
<path d="M132.53 510.809C150.892 510.809 165.778 505.097 165.778 498.051C165.778 491.005 150.892 485.292 132.53 485.292C114.167 485.292 99.2812 491.005 99.2812 498.051C99.2812 505.097 114.167 510.809 132.53 510.809Z" stroke="#FAFAFA" stroke-width="0.515" stroke-miterlimit="10" stroke-linecap="round"/>
<path d="M108.818 459.003C108.818 462.482 101.343 465.317 92.1935 465.317C83.0438 465.317 75.5693 462.482 75.5693 459.003C75.5693 455.523 83.0438 452.688 92.1935 452.688C101.343 452.688 108.818 455.523 108.818 459.003Z" stroke="#FAFAFA" stroke-width="0.515" stroke-miterlimit="10" stroke-linecap="round"/>
<path d="M479.705 434.646C488.886 434.646 496.329 431.819 496.329 428.332C496.329 424.844 488.886 422.017 479.705 422.017C470.523 422.017 463.081 424.844 463.081 428.332C463.081 431.819 470.523 434.646 479.705 434.646Z" stroke="#FAFAFA" stroke-width="0.515" stroke-miterlimit="10" stroke-linecap="round"/>
<path d="M466.303 459.003C466.303 462.482 458.828 465.317 449.678 465.317C440.529 465.317 433.054 462.482 433.054 459.003C433.054 455.523 440.529 452.688 449.678 452.688C458.828 452.688 466.303 455.523 466.303 459.003Z" stroke="#FAFAFA" stroke-width="0.515" stroke-miterlimit="10" stroke-linecap="round"/>
<path d="M414.754 504.365C423.935 504.365 431.378 501.538 431.378 498.05C431.378 494.563 423.935 491.736 414.754 491.736C405.573 491.736 398.13 494.563 398.13 498.05C398.13 501.538 405.573 504.365 414.754 504.365Z" stroke="#FAFAFA" stroke-width="0.515" stroke-miterlimit="10" stroke-linecap="round"/>
<path d="M317.716 522.149L517.722 334.128V161.185L465.401 67.8835L291.426 130.256V189.923L157.917 152.809L6.10889 209.898" stroke="#FAFAFA" stroke-width="1.03" stroke-miterlimit="10" stroke-linecap="round"/>
<path d="M291.426 189.923V222.398" stroke="#FAFAFA" stroke-width="1.03" stroke-miterlimit="10" stroke-linecap="round"/>
<path d="M465.4 366.475V243.017" stroke="#FAFAFA" stroke-width="1.03" stroke-miterlimit="10" stroke-linecap="round"/>
<path d="M336.273 216.341L429.446 235.672L429.961 362.866" stroke="#FAFAFA" stroke-width="1.03" stroke-miterlimit="10" stroke-linecap="round"/>
<path d="M187.171 181.418V216.341L280.859 234.641V205.516L187.171 181.418Z" stroke="#FAFAFA" stroke-width="0.515" stroke-miterlimit="10" stroke-linecap="round"/>
<path d="M280.859 205.516L273.256 207.449L273.642 233.352" stroke="#FAFAFA" stroke-width="0.515" stroke-miterlimit="10" stroke-linecap="round"/>
<path d="M273.256 207.449L187.171 185.928" stroke="#FAFAFA" stroke-width="0.515" stroke-miterlimit="10" stroke-linecap="round"/>
<path d="M270.678 232.708V208.996L187.171 188.505" stroke="#FAFAFA" stroke-width="0.515" stroke-miterlimit="10" stroke-linecap="round"/>
<path d="M270.678 208.996H268.616V232.321" stroke="#FAFAFA" stroke-width="0.515" stroke-miterlimit="10" stroke-linecap="round"/>
<path d="M251.219 204.228V228.971" stroke="#FAFAFA" stroke-width="0.515" stroke-miterlimit="10" stroke-linecap="round"/>
<path d="M248.384 203.583V228.068" stroke="#FAFAFA" stroke-width="0.515" stroke-miterlimit="10" stroke-linecap="round"/>
<path d="M246.322 203.583V228.068" stroke="#FAFAFA" stroke-width="0.515" stroke-miterlimit="10" stroke-linecap="round"/>
<path d="M219.001 196.753V222.656" stroke="#FAFAFA" stroke-width="0.515" stroke-miterlimit="10" stroke-linecap="round"/>
<path d="M215.006 221.883V195.336" stroke="#FAFAFA" stroke-width="0.515" stroke-miterlimit="10" stroke-linecap="round"/>
<path d="M212.687 194.82V221.238" stroke="#FAFAFA" stroke-width="0.515" stroke-miterlimit="10" stroke-linecap="round"/>
<path d="M157.917 272.786L54.1772 274.848" stroke="#FAFAFA" stroke-width="1.03" stroke-miterlimit="10" stroke-linecap="round"/>
<path d="M130.339 187.99V244.048" stroke="#FAFAFA" stroke-width="0.515" stroke-miterlimit="10" stroke-linecap="round"/>
<path d="M88.8433 202.939V249.59" stroke="#FAFAFA" stroke-width="0.515" stroke-miterlimit="10" stroke-linecap="round"/>
<path d="M63.7134 211.96V252.94" stroke="#FAFAFA" stroke-width="0.515" stroke-miterlimit="10" stroke-linecap="round"/>
<path d="M30.2075 223.945V258.482" stroke="#FAFAFA" stroke-width="0.515" stroke-miterlimit="10" stroke-linecap="round"/>
<path d="M30.2075 223.945L35.2334 224.718V256.806" stroke="#FAFAFA" stroke-width="0.515" stroke-miterlimit="10" stroke-linecap="round"/>
<path d="M35.2329 224.718L63.7131 215.568" stroke="#FAFAFA" stroke-width="0.515" stroke-miterlimit="10" stroke-linecap="round"/>
<path d="M88.8433 202.939L95.5445 203.712V248.559" stroke="#FAFAFA" stroke-width="0.515" stroke-miterlimit="10" stroke-linecap="round"/>
<path d="M95.5444 203.712L130.339 191.727" stroke="#FAFAFA" stroke-width="0.515" stroke-miterlimit="10" stroke-linecap="round"/>
<path d="M97.7349 248.43V205.001L130.339 194.047" stroke="#FAFAFA" stroke-width="0.515" stroke-miterlimit="10" stroke-linecap="round"/>
<path d="M116.292 198.815V245.852" stroke="#FAFAFA" stroke-width="0.515" stroke-miterlimit="10" stroke-linecap="round"/>
<path d="M118.999 245.466V197.913L120.932 198.815V245.208" stroke="#FAFAFA" stroke-width="0.515" stroke-miterlimit="10" stroke-linecap="round"/>
<path d="M97.7349 205.001L99.1524 205.645V248.172" stroke="#FAFAFA" stroke-width="0.515" stroke-miterlimit="10" stroke-linecap="round"/>
<path d="M99.1523 205.645L116.292 200.233" stroke="#FAFAFA" stroke-width="0.515" stroke-miterlimit="10" stroke-linecap="round"/>
<path d="M120.932 198.815L130.339 195.593" stroke="#FAFAFA" stroke-width="0.515" stroke-miterlimit="10" stroke-linecap="round"/>
<path d="M36.9082 256.549V225.749L63.7131 217.759" stroke="#FAFAFA" stroke-width="0.515" stroke-miterlimit="10" stroke-linecap="round"/>
<path d="M50.311 221.754V254.745" stroke="#FAFAFA" stroke-width="0.515" stroke-miterlimit="10" stroke-linecap="round"/>
<path d="M52.1152 254.487V221.238L53.4039 221.754V254.358" stroke="#FAFAFA" stroke-width="0.515" stroke-miterlimit="10" stroke-linecap="round"/>
<path d="M36.9082 225.749L38.068 226.135V256.42" stroke="#FAFAFA" stroke-width="0.515" stroke-miterlimit="10" stroke-linecap="round"/>
<path d="M38.0684 226.135L50.311 222.656" stroke="#FAFAFA" stroke-width="0.515" stroke-miterlimit="10" stroke-linecap="round"/>
<path d="M53.4038 221.754L63.7134 218.661" stroke="#FAFAFA" stroke-width="0.515" stroke-miterlimit="10" stroke-linecap="round"/>
<path d="M11.0059 165.051V415.187" stroke="#FAFAFA" stroke-width="0.1545" stroke-miterlimit="10" stroke-linecap="round"/>
<path d="M157.531 118.271V491.349" stroke="#FAFAFA" stroke-width="0.1545" stroke-miterlimit="10" stroke-linecap="round"/>
<path d="M167.969 122.395V502.174" stroke="#FAFAFA" stroke-width="0.1545" stroke-miterlimit="10" stroke-linecap="round"/>
<path d="M291.04 114.534V538" stroke="#FAFAFA" stroke-width="0.1545" stroke-miterlimit="10" stroke-linecap="round"/>
<path d="M465.4 40.0476V422.275" stroke="#FAFAFA" stroke-width="0.1545" stroke-miterlimit="10" stroke-linecap="round"/>
<path d="M226.991 88.7603V406.682" stroke="#FAFAFA" stroke-width="0.1545" stroke-miterlimit="10" stroke-linecap="round"/>
<path d="M517.722 125.488V372.016" stroke="#FAFAFA" stroke-width="0.1545" stroke-miterlimit="10" stroke-linecap="round"/>
<path d="M336.659 186.701V433.229" stroke="#FAFAFA" stroke-width="0.1545" stroke-miterlimit="10" stroke-linecap="round"/>
<path d="M0.30957 194.047L486.148 1" stroke="#FAFAFA" stroke-width="0.1545" stroke-miterlimit="10" stroke-linecap="round"/>
<path d="M527 154.742L438.724 1" stroke="#FAFAFA" stroke-width="0.1545" stroke-miterlimit="10" stroke-linecap="round"/>
<path d="M415.915 100.487V232.45" stroke="#FAFAFA" stroke-width="0.515" stroke-miterlimit="10" stroke-linecap="round"/>
<path d="M64.6152 282.065H157.53V341.087L64.6152 328.2V282.065Z" stroke="#FAFAFA" stroke-width="0.515" stroke-miterlimit="10" stroke-linecap="round"/>
<path d="M70.4144 282.065V327.298L64.6152 328.2" stroke="#FAFAFA" stroke-width="0.515" stroke-miterlimit="10" stroke-linecap="round"/>
<path d="M70.4146 327.298L157.53 338.767" stroke="#FAFAFA" stroke-width="0.515" stroke-miterlimit="10" stroke-linecap="round"/>
<path d="M73.25 282.065V325.494L157.531 335.288" stroke="#FAFAFA" stroke-width="0.515" stroke-miterlimit="10" stroke-linecap="round"/>
<path d="M111.009 282.065V329.876" stroke="#FAFAFA" stroke-width="0.515" stroke-miterlimit="10" stroke-linecap="round"/>
<path d="M117.967 330.391V282.065" stroke="#FAFAFA" stroke-width="0.515" stroke-miterlimit="10" stroke-linecap="round"/>
<path d="M115.391 282.065V330.391" stroke="#FAFAFA" stroke-width="0.515" stroke-miterlimit="10" stroke-linecap="round"/>
<path d="M73.25 325.494H75.4408V282.065" stroke="#FAFAFA" stroke-width="0.515" stroke-miterlimit="10" stroke-linecap="round"/>
</g>
</svg>
