<svg width="51" height="51" viewBox="0 0 51 51" fill="none" xmlns="http://www.w3.org/2000/svg">
<circle cx="25.0667" cy="25.0667" r="24.5667" fill="white" stroke="#F0F0F0"/>
<g clip-path="url(#clip0_40_1420)">
<g clip-path="url(#clip1_40_1420)">
<path d="M25.0665 37.5515C31.9885 37.5515 37.5999 31.9402 37.5999 25.0182C37.5999 18.0962 31.9885 12.4849 25.0665 12.4849C18.1446 12.4849 12.5332 18.0962 12.5332 25.0182C12.5332 31.9402 18.1446 37.5515 25.0665 37.5515Z" fill="#26A5E4"/>
<path fill-rule="evenodd" clip-rule="evenodd" d="M18.2067 24.8857C21.8604 23.2939 24.2968 22.2444 25.5159 21.7374C28.9965 20.2897 29.7197 20.0382 30.1911 20.0299C30.2948 20.028 30.5266 20.0537 30.6768 20.1756C30.8036 20.2785 30.8385 20.4175 30.8552 20.515C30.8719 20.6126 30.8927 20.8348 30.8761 21.0084C30.6875 22.9902 29.8714 27.7996 29.4562 30.0192C29.2805 30.9584 28.9346 31.2734 28.5996 31.3042C27.8718 31.3712 27.3191 30.8232 26.6142 30.3611C25.5111 29.638 24.8879 29.1879 23.8172 28.4823C22.5797 27.6668 23.3819 27.2186 24.0871 26.4862C24.2717 26.2945 27.4785 23.3776 27.5406 23.113C27.5484 23.0799 27.5556 22.9565 27.4823 22.8914C27.409 22.8263 27.3008 22.8485 27.2228 22.8663C27.1121 22.8914 25.3499 24.0561 21.9361 26.3605C21.4359 26.704 20.9829 26.8713 20.577 26.8626C20.1294 26.8529 19.2686 26.6095 18.6287 26.4015C17.8438 26.1464 17.22 26.0115 17.2743 25.5782C17.3026 25.3525 17.6134 25.1217 18.2067 24.8857Z" fill="white"/>
</g>
</g>
<defs>
<clipPath id="clip0_40_1420">
<rect width="25.0667" height="25.0667" fill="white" transform="translate(12.5332 12.5332)"/>
</clipPath>
<clipPath id="clip1_40_1420">
<rect width="25.0667" height="25.0667" fill="white" transform="translate(12.5332 12.4849)"/>
</clipPath>
</defs>
</svg>
