<svg width="60" height="60" viewBox="0 0 60 60" fill="none" xmlns="http://www.w3.org/2000/svg">
<path d="M57.0398 2.95853C55.2363 1.15505 52.7487 0.110274 50.0373 0.0107713C47.4627 -0.0887311 44.8259 0.632662 42.4378 2.10032C41.3806 2.74709 41.0448 4.12769 41.6915 5.17246C42.3383 6.22968 43.7189 6.5655 44.7637 5.91873C48.0099 3.92868 51.7537 4.01575 53.8681 6.13017C55.1119 7.37396 55.6841 9.17744 55.4726 11.2048C55.2487 13.4063 54.1666 15.5705 52.4254 17.3118C50.6841 19.0531 48.5074 20.1351 46.3184 20.359C44.291 20.558 42.4875 19.9859 41.2438 18.7546C40.4353 17.9461 39.3657 17.5108 38.2338 17.5108C37.0895 17.5108 36.0199 17.9585 35.2114 18.7546C34.403 19.563 33.9676 20.6327 33.9676 21.7769C33.9676 22.9212 34.4154 23.9909 35.2239 24.7993C36.0323 25.6078 37.102 26.0431 38.2338 26.0431C39.3781 26.0431 40.4477 25.5953 41.2562 24.7993C41.4303 24.6252 41.592 24.4386 41.7288 24.2396C42.9104 24.6625 44.1791 24.8864 45.5224 24.8864C45.9328 24.8864 46.3557 24.8615 46.7786 24.8242C46.8159 24.8242 46.8532 24.8118 46.8905 24.8118L47.2761 30.3963C47.3632 31.665 46.8905 32.9088 45.995 33.8167L25.1368 54.6501C23.9677 55.8192 22.0522 55.8192 20.8831 54.6501L5.34826 39.1152C4.77612 38.5431 4.46517 37.7844 4.46517 36.9884C4.46517 36.1799 4.77612 35.4337 5.34826 34.8615L26.194 14.0157C27.0895 13.1202 28.3333 12.6476 29.602 12.7347L48.1219 13.966C49.3532 14.0531 50.4229 13.1202 50.5099 11.8764C50.597 10.6451 49.6642 9.57545 48.4204 9.48838L29.9005 8.25704C27.3507 8.08291 24.8383 9.02818 23.0348 10.8441L2.18905 31.6899C0.771144 33.1078 0 34.9859 0 36.9884C0 38.9909 0.783582 40.869 2.18905 42.2869L17.7114 57.8093C19.1667 59.2645 21.0945 59.9983 23.0099 59.9983C24.9254 59.9983 26.8408 59.2645 28.3084 57.8093L49.1542 36.9635C50.9701 35.1476 51.9154 32.6351 51.7413 30.073L51.2935 23.5307C52.8607 22.7844 54.3159 21.7521 55.6094 20.471C58.0721 18.0083 59.6144 14.874 59.9378 11.6526C60.2736 8.25704 59.2413 5.17246 57.0398 2.95853Z" fill="#08A652"/>
</svg>
