<svg width="51" height="51" viewBox="0 0 51 51" fill="none" xmlns="http://www.w3.org/2000/svg">
<circle cx="25.2" cy="25.0667" r="24.5667" fill="white" stroke="#F0F0F0"/>
<g clip-path="url(#clip0_40_1436)">
<path d="M34.2666 24.5529C34.2666 29.849 30.091 34.1423 24.9393 34.1423C23.3038 34.1423 21.7673 33.7092 20.4306 32.9491L15.2666 34.6494L16.9502 29.5043C16.1009 28.0594 15.6118 26.3646 15.6118 24.5529C15.6118 19.2567 19.7878 14.9634 24.9393 14.9634C30.0915 14.9634 34.2666 19.2567 34.2666 24.5529ZM24.9393 16.4906C20.6149 16.4906 17.0974 20.1073 17.0974 24.5529C17.0974 26.3169 17.6524 27.9507 18.5912 29.2797L17.6114 32.2739L20.625 31.2815C21.8632 32.1239 23.3465 32.6151 24.9395 32.6151C29.2633 32.6151 32.7814 28.9988 32.7814 24.5533C32.7814 20.1078 29.2635 16.4906 24.9393 16.4906ZM29.6494 26.7614C29.5918 26.6636 29.4395 26.6046 29.2111 26.4871C28.9823 26.3696 27.8579 25.8007 27.6489 25.7226C27.4393 25.6443 27.2864 25.605 27.1342 25.8401C26.982 26.0755 26.5437 26.6046 26.4101 26.7614C26.2767 26.9187 26.1435 26.9384 25.9146 26.8207C25.6862 26.7032 24.9496 26.4547 24.0763 25.6542C23.3967 25.0312 22.9377 24.2622 22.8043 24.0266C22.6711 23.7914 22.7904 23.6644 22.9046 23.5473C23.0076 23.4419 23.1334 23.2728 23.2477 23.1357C23.3623 22.9983 23.4003 22.9005 23.4761 22.7435C23.5527 22.5867 23.5145 22.4495 23.4571 22.3316C23.4001 22.2142 22.9424 21.0575 22.752 20.5868C22.5615 20.1165 22.3713 20.1948 22.2377 20.1948C22.1045 20.1948 21.9519 20.1751 21.7994 20.1751C21.647 20.1751 21.3992 20.234 21.1895 20.4691C20.9801 20.7045 20.3896 21.2732 20.3896 22.4296C20.3896 23.5863 21.2085 24.7038 21.3232 24.8604C21.4374 25.017 22.9044 27.4677 25.2287 28.4089C27.5533 29.3497 27.5533 29.0358 27.9725 28.9964C28.3914 28.9573 29.3249 28.4279 29.5162 27.8793C29.7062 27.3299 29.7062 26.8594 29.6494 26.7614Z" fill="#14B642"/>
</g>
<defs>
<clipPath id="clip0_40_1436">
<rect width="19" height="20" fill="white" transform="translate(15.2666 15)"/>
</clipPath>
</defs>
</svg>
